<?xml version="1.0" encoding="utf-8"?>
<!-- Generator: Adobe Illustrator 16.0.0, SVG Export Plug-In . SVG Version: 6.00 Build 0)  -->
<!DOCTYPE svg PUBLIC "-//W3C//DTD SVG 1.1//EN" "http://www.w3.org/Graphics/SVG/1.1/DTD/svg11.dtd">
<svg version="1.1" id="Layer_1" xmlns="http://www.w3.org/2000/svg" xmlns:xlink="http://www.w3.org/1999/xlink" x="0px" y="0px"
	 width="101.242px" height="28.863px" viewBox="-29.365 -4.511 101.242 28.863"
	 enable-background="new -29.365 -4.511 101.242 28.863" xml:space="preserve">
<g id="Guides_For_Artboard" display="none">
</g>
<g>
	<path fill="#FFFFFF" d="M5.483,10.008h1.579c0.299,0,0.58-0.036,0.826-0.088C8.15,9.868,8.379,9.761,8.555,9.639
		c0.193-0.122,0.333-0.28,0.456-0.474C9.117,8.972,9.169,8.743,9.169,8.48c0-0.526-0.176-0.93-0.509-1.194
		C8.326,7.023,7.818,6.9,7.151,6.9H5.466v3.108H5.483z M5.483,6.215h1.65c0.193,0,0.386-0.017,0.58-0.07
		C7.905,6.093,8.081,6.022,8.239,5.9C8.397,5.794,8.52,5.636,8.625,5.46c0.106-0.175,0.141-0.403,0.141-0.648
		c0-0.088-0.017-0.193-0.052-0.352C8.677,4.302,8.608,4.162,8.484,4.003c-0.122-0.158-0.298-0.28-0.527-0.386
		C7.73,3.512,7.414,3.459,7.027,3.459H5.448v2.756H5.483z M4.657,2.687h2.405c0.334,0,0.65,0.035,0.967,0.106
		c0.316,0.07,0.596,0.176,0.824,0.35c0.247,0.158,0.44,0.37,0.58,0.632c0.14,0.264,0.21,0.58,0.21,0.966
		c0,0.439-0.123,0.826-0.369,1.142C9.028,6.198,8.677,6.409,8.222,6.514v0.018c0.579,0.054,1.018,0.247,1.334,0.598
		c0.316,0.351,0.492,0.824,0.492,1.42c0,0.124-0.035,0.316-0.106,0.563c-0.07,0.246-0.193,0.491-0.404,0.755
		c-0.21,0.245-0.509,0.456-0.896,0.649c-0.386,0.175-0.912,0.281-1.544,0.281H4.64V2.687H4.657z M11.574,2.143h0.756v4.143h0.017
		c0.087-0.141,0.193-0.281,0.315-0.403c0.124-0.123,0.282-0.229,0.44-0.316c0.158-0.088,0.333-0.159,0.509-0.21
		c0.176-0.054,0.352-0.071,0.526-0.071c0.684,0,1.193,0.175,1.509,0.544c0.334,0.369,0.492,0.878,0.492,1.545v3.389h-0.737V7.813
		c0-0.597-0.106-1.054-0.316-1.369c-0.211-0.316-0.58-0.475-1.142-0.475c-0.035,0-0.14,0.018-0.315,0.052
		c-0.175,0.036-0.351,0.106-0.562,0.247c-0.193,0.141-0.368,0.352-0.527,0.614c-0.158,0.281-0.229,0.65-0.229,1.142v2.739h-0.755
		V2.143H11.574z M20.949,8.111c-0.193,0-0.421,0.018-0.72,0.035c-0.28,0.018-0.562,0.071-0.824,0.141
		c-0.264,0.07-0.492,0.176-0.668,0.333c-0.193,0.159-0.281,0.369-0.281,0.631c0,0.176,0.037,0.334,0.106,0.458
		c0.07,0.122,0.175,0.228,0.299,0.316c0.122,0.087,0.263,0.139,0.404,0.175c0.141,0.035,0.299,0.052,0.456,0.052
		c0.282,0,0.509-0.052,0.72-0.141c0.193-0.087,0.369-0.21,0.509-0.369c0.141-0.158,0.246-0.333,0.298-0.544
		c0.07-0.211,0.106-0.438,0.106-0.667V8.146h-0.404V8.111z M21.335,7.498V7.357c0-0.913-0.456-1.387-1.369-1.387
		c-0.633,0-1.177,0.21-1.633,0.632l-0.457-0.544c0.509-0.509,1.247-0.773,2.265-0.773c0.263,0,0.509,0.036,0.754,0.123
		c0.246,0.07,0.438,0.193,0.614,0.352c0.175,0.158,0.316,0.352,0.422,0.579c0.104,0.228,0.158,0.509,0.158,0.843v2.387
		c0,0.211,0.017,0.421,0.035,0.65c0.018,0.228,0.034,0.404,0.07,0.562h-0.738c-0.018-0.123-0.035-0.264-0.053-0.422
		c-0.017-0.157-0.017-0.298-0.017-0.438h-0.018c-0.229,0.352-0.474,0.613-0.79,0.771c-0.298,0.159-0.667,0.228-1.106,0.228
		c-0.228,0-0.456-0.034-0.685-0.104c-0.228-0.07-0.42-0.158-0.579-0.299c-0.176-0.141-0.316-0.298-0.403-0.491
		c-0.106-0.194-0.159-0.422-0.159-0.685c0-0.439,0.106-0.772,0.333-1.019c0.229-0.245,0.51-0.438,0.844-0.562
		c0.333-0.124,0.701-0.193,1.088-0.228C20.3,7.498,20.651,7.48,20.966,7.48h0.369V7.498z M23.916,7.093c0-0.228,0-0.473-0.018-0.719
		c-0.02-0.246-0.02-0.562-0.036-0.948H24.6v1.001h0.02c0.051-0.141,0.12-0.282,0.228-0.422c0.104-0.139,0.209-0.245,0.352-0.351
		c0.139-0.104,0.298-0.193,0.49-0.263c0.193-0.07,0.405-0.106,0.633-0.106c0.21,0,0.405,0.018,0.562,0.071l-0.142,0.737
		c-0.105-0.035-0.244-0.052-0.44-0.052c-0.278,0-0.544,0.052-0.734,0.157c-0.211,0.106-0.369,0.247-0.512,0.422
		c-0.139,0.175-0.244,0.351-0.297,0.562c-0.07,0.193-0.089,0.386-0.089,0.561v3.021h-0.754V7.093L23.916,7.093z M31.991,8.094
		c0-0.299-0.052-0.579-0.14-0.826c-0.088-0.263-0.228-0.491-0.404-0.667c-0.178-0.193-0.386-0.333-0.633-0.457
		c-0.246-0.104-0.526-0.158-0.842-0.158c-0.316,0-0.596,0.053-0.842,0.158c-0.247,0.106-0.455,0.264-0.633,0.457
		c-0.177,0.193-0.298,0.421-0.404,0.667c-0.089,0.264-0.141,0.544-0.141,0.826c0,0.299,0.052,0.579,0.141,0.824
		c0.089,0.264,0.228,0.492,0.404,0.668c0.178,0.193,0.386,0.333,0.633,0.457c0.246,0.105,0.525,0.158,0.842,0.158
		c0.315,0,0.596-0.053,0.842-0.158c0.247-0.106,0.455-0.264,0.633-0.457c0.177-0.193,0.316-0.421,0.404-0.668
		C31.956,8.673,31.991,8.393,31.991,8.094L31.991,8.094z M32.816,8.094c0,0.403-0.069,0.772-0.211,1.124
		c-0.14,0.351-0.332,0.632-0.579,0.895c-0.244,0.246-0.544,0.44-0.896,0.597c-0.35,0.141-0.719,0.209-1.139,0.209
		c-0.405,0-0.791-0.068-1.143-0.209c-0.352-0.14-0.649-0.334-0.896-0.597c-0.246-0.245-0.437-0.544-0.579-0.895
		c-0.142-0.334-0.211-0.72-0.211-1.124s0.069-0.772,0.211-1.124c0.143-0.351,0.333-0.632,0.579-0.895
		c0.247-0.247,0.545-0.44,0.896-0.579c0.352-0.141,0.718-0.212,1.143-0.212c0.42,0,0.806,0.071,1.139,0.212
		c0.352,0.139,0.651,0.333,0.896,0.579c0.247,0.245,0.439,0.544,0.579,0.895C32.747,7.322,32.816,7.691,32.816,8.094L32.816,8.094z
		 M37.012,6.689c-0.104-0.228-0.262-0.404-0.455-0.527c-0.192-0.122-0.421-0.193-0.702-0.193c-0.123,0-0.264,0.018-0.387,0.052
		c-0.142,0.036-0.246,0.071-0.351,0.141c-0.107,0.071-0.193,0.141-0.265,0.247c-0.07,0.104-0.103,0.228-0.103,0.369
		c0,0.246,0.086,0.438,0.26,0.544c0.178,0.104,0.439,0.21,0.791,0.298l0.771,0.175c0.371,0.088,0.684,0.247,0.931,0.509
		c0.247,0.264,0.37,0.579,0.37,0.947c0,0.282-0.054,0.544-0.175,0.756c-0.125,0.211-0.283,0.387-0.474,0.509
		c-0.196,0.141-0.424,0.229-0.668,0.299c-0.246,0.053-0.51,0.087-0.774,0.087c-0.402,0-0.788-0.07-1.14-0.229
		c-0.352-0.157-0.651-0.42-0.911-0.806l0.647-0.44c0.156,0.247,0.352,0.44,0.579,0.58c0.229,0.14,0.51,0.211,0.824,0.211
		c0.157,0,0.3-0.018,0.458-0.054c0.158-0.035,0.281-0.087,0.402-0.157c0.125-0.071,0.212-0.158,0.284-0.281
		c0.07-0.106,0.102-0.246,0.102-0.403c0-0.265-0.102-0.458-0.297-0.581c-0.193-0.122-0.438-0.21-0.719-0.28l-0.737-0.176
		c-0.088-0.017-0.212-0.052-0.369-0.106c-0.156-0.052-0.314-0.139-0.457-0.245c-0.142-0.106-0.281-0.246-0.386-0.421
		s-0.158-0.386-0.158-0.632c0-0.281,0.054-0.509,0.158-0.72c0.104-0.21,0.263-0.368,0.439-0.509c0.19-0.122,0.403-0.228,0.633-0.297
		c0.228-0.071,0.472-0.106,0.735-0.106c0.369,0,0.721,0.071,1.036,0.21c0.317,0.141,0.563,0.387,0.737,0.738L37.012,6.689
		L37.012,6.689z M42.085,8.111c-0.19,0-0.418,0.018-0.719,0.035c-0.281,0.018-0.561,0.071-0.825,0.141
		c-0.264,0.07-0.491,0.176-0.666,0.333c-0.195,0.159-0.284,0.369-0.284,0.631c0,0.176,0.039,0.334,0.107,0.458
		c0.07,0.122,0.177,0.228,0.298,0.316c0.123,0.087,0.266,0.139,0.405,0.175c0.14,0.035,0.298,0.052,0.455,0.052
		c0.282,0,0.51-0.052,0.721-0.141c0.191-0.087,0.368-0.21,0.508-0.369c0.142-0.158,0.246-0.333,0.3-0.544
		c0.069-0.211,0.105-0.438,0.105-0.667V8.146h-0.405V8.111z M42.471,7.498V7.357c0-0.913-0.455-1.387-1.367-1.387
		c-0.633,0-1.178,0.21-1.633,0.632l-0.456-0.544c0.508-0.509,1.247-0.773,2.266-0.773c0.26,0,0.507,0.036,0.753,0.123
		c0.247,0.07,0.438,0.193,0.615,0.352c0.176,0.158,0.315,0.352,0.423,0.579c0.103,0.228,0.156,0.509,0.156,0.843v2.387
		c0,0.211,0.018,0.421,0.034,0.65c0.02,0.228,0.037,0.404,0.069,0.562h-0.734c-0.019-0.123-0.038-0.264-0.054-0.422
		c-0.017-0.157-0.017-0.298-0.017-0.438h-0.019c-0.228,0.352-0.475,0.613-0.772,0.771c-0.298,0.159-0.667,0.228-1.106,0.228
		c-0.228,0-0.456-0.034-0.684-0.104c-0.228-0.07-0.423-0.158-0.599-0.299c-0.174-0.141-0.315-0.298-0.401-0.491
		c-0.106-0.194-0.158-0.422-0.158-0.685c0-0.439,0.104-0.772,0.332-1.019c0.228-0.245,0.511-0.438,0.843-0.562
		c0.332-0.124,0.701-0.193,1.088-0.228c0.388-0.035,0.737-0.053,1.054-0.053h0.367V7.498z M55.076,9.481
		c-0.14,0.21-0.298,0.403-0.507,0.579c-0.195,0.176-0.439,0.334-0.686,0.473c-0.264,0.141-0.545,0.247-0.843,0.317
		c-0.3,0.068-0.616,0.122-0.949,0.122c-0.597,0-1.158-0.104-1.667-0.315c-0.51-0.211-0.965-0.509-1.335-0.878
		c-0.367-0.369-0.665-0.824-0.877-1.333c-0.211-0.509-0.315-1.089-0.315-1.704c0-0.614,0.104-1.176,0.315-1.703
		c0.212-0.51,0.51-0.965,0.877-1.334c0.37-0.369,0.825-0.667,1.335-0.878c0.509-0.21,1.07-0.316,1.667-0.316
		c0.51,0,1.003,0.106,1.51,0.299c0.512,0.193,0.93,0.527,1.284,0.983l-0.721,0.526c-0.089-0.123-0.193-0.263-0.335-0.386
		C53.69,3.81,53.513,3.687,53.339,3.6c-0.192-0.106-0.386-0.176-0.598-0.246c-0.21-0.054-0.418-0.089-0.631-0.089
		c-0.508,0-0.983,0.089-1.388,0.282c-0.402,0.193-0.754,0.438-1.052,0.772c-0.281,0.316-0.511,0.685-0.65,1.106
		c-0.158,0.421-0.229,0.86-0.229,1.333c0,0.457,0.07,0.914,0.229,1.335c0.157,0.421,0.369,0.79,0.65,1.106
		c0.279,0.316,0.633,0.579,1.052,0.772c0.404,0.193,0.88,0.281,1.388,0.281c0.213,0,0.421-0.017,0.631-0.052
		c0.212-0.036,0.423-0.105,0.615-0.193c0.194-0.088,0.388-0.211,0.562-0.369c0.177-0.157,0.352-0.352,0.493-0.58L55.076,9.481
		L55.076,9.481z M57.095,10.764h-0.754V2.143h0.754V10.764L57.095,10.764z M62.767,10.764c-0.018-0.141-0.018-0.282-0.034-0.423
		c0-0.14,0-0.28,0-0.421h-0.019c-0.089,0.141-0.193,0.281-0.316,0.403c-0.121,0.123-0.279,0.229-0.437,0.316
		c-0.159,0.087-0.335,0.158-0.513,0.211c-0.174,0.052-0.349,0.068-0.525,0.068c-0.684,0-1.192-0.174-1.51-0.543
		c-0.332-0.368-0.49-0.877-0.49-1.544V5.426h0.754v2.949c0,0.299,0.018,0.562,0.069,0.791c0.054,0.228,0.124,0.421,0.229,0.579
		c0.106,0.159,0.265,0.282,0.439,0.352c0.193,0.087,0.421,0.123,0.702,0.123c0.034,0,0.142-0.018,0.316-0.054
		c0.174-0.035,0.351-0.104,0.56-0.245c0.196-0.141,0.37-0.333,0.528-0.614c0.158-0.281,0.229-0.65,0.229-1.142V5.426h0.756v4.161
		c0,0.141,0,0.333,0.019,0.544c0.016,0.228,0.016,0.422,0.032,0.633H62.767L62.767,10.764z M70.14,8.094
		c0-0.299-0.054-0.579-0.139-0.826c-0.09-0.263-0.231-0.491-0.405-0.667c-0.175-0.193-0.386-0.333-0.63-0.457
		c-0.247-0.104-0.528-0.158-0.845-0.158s-0.599,0.053-0.86,0.158c-0.264,0.106-0.472,0.264-0.667,0.457
		c-0.192,0.193-0.334,0.421-0.438,0.667c-0.107,0.264-0.158,0.544-0.158,0.826c0,0.299,0.051,0.579,0.158,0.824
		c0.104,0.264,0.262,0.492,0.438,0.668c0.195,0.193,0.423,0.333,0.667,0.457c0.262,0.105,0.544,0.158,0.86,0.158
		s0.598-0.053,0.845-0.158c0.244-0.106,0.455-0.264,0.63-0.457c0.174-0.193,0.315-0.421,0.405-0.668
		C70.086,8.673,70.14,8.393,70.14,8.094L70.14,8.094z M65.258,2.143h0.756v4.178h0.019c0.124-0.176,0.264-0.333,0.439-0.474
		c0.174-0.123,0.35-0.229,0.525-0.316c0.178-0.088,0.368-0.141,0.563-0.175c0.19-0.035,0.387-0.054,0.544-0.054
		c0.419,0,0.808,0.071,1.14,0.211c0.352,0.14,0.651,0.333,0.896,0.579c0.247,0.246,0.44,0.544,0.579,0.896
		c0.14,0.351,0.211,0.72,0.211,1.123c0,0.404-0.071,0.772-0.211,1.124c-0.139,0.352-0.332,0.633-0.579,0.896
		c-0.244,0.245-0.544,0.44-0.896,0.596c-0.352,0.142-0.721,0.212-1.14,0.212c-0.177,0-0.354-0.02-0.544-0.054
		c-0.195-0.034-0.386-0.104-0.563-0.175c-0.176-0.087-0.352-0.193-0.525-0.315c-0.176-0.123-0.315-0.282-0.439-0.475h-0.019v0.844
		h-0.756V2.143z"/>
</g>
<path fill="#FFFFFF" d="M-14.934-4.511c-7.97,0-14.431,6.46-14.431,14.431c0,7.97,6.461,14.432,14.431,14.432
	S-0.503,17.89-0.503,9.92C-0.503,1.949-6.964-4.511-14.934-4.511z M-1.276,7.199c-0.965,1.229-4.266,1.878-5.408,1.088
	C-5.752,7.233-3.4,6.409-1.276,7.199z M-3.243,6.62C-4.7,6.637-5.928,7.216-6.964,8.199C-7.087,8.322-7.14,8.411-6.929,8.498
	c0.772,0.316,1.598,0.458,2.424,0.386c0.859-0.07,1.684-0.297,2.422-0.754c0.069-0.052,0.176-0.07,0.245-0.105
	c0.018,0.018,0.035,0.035,0.054,0.053c-0.071,0.122-0.123,0.245-0.194,0.369c-0.28,0.473-0.631,0.895-1.089,1.211
	c-0.156,0.122-0.297,0.122-0.456,0.017c-0.65-0.422-1.387-0.597-2.142-0.632c-0.737-0.018-1.422,0.21-2.071,0.597
	c-0.036,0.019-0.088,0.053-0.105,0.053C-8,8.955-8.141,8.235-8.299,7.48c0.054,0,0.158-0.019,0.265-0.019
	c1.053,0.106,2-0.139,2.826-0.79c0.333-0.263,0.631-0.596,0.931-0.93c0.122-0.124,0.21-0.159,0.386-0.124
	c0.668,0.193,1.299,0.474,1.844,0.983C-2.487,6.62-2.855,6.602-3.243,6.62z M-3.594,9.937c-1.158,0.827-2.966,0.827-4.107,0.035
	C-6.86,9.183-4.84,9.077-3.594,9.937z M-8.229,7.164c0.352-1.001,2.142-1.914,3.792-1.597C-5.244,6.795-6.789,7.426-8.229,7.164z
	 M-3.331,2.143c-0.351,0.702-0.754,1.281-1.298,1.755c-0.808,0.684-1.721,1.159-2.81,1.264c-0.035,0-0.07,0.018-0.122,0.018
	c-0.106,0-0.229,0.018-0.333,0.018C-7.86,5.074-7.86,4.934-7.79,4.829c0.544-0.983,1.335-1.721,2.353-2.176
	c0.58-0.265,1.229-0.352,1.843-0.509C-3.541,2.125-3.471,2.143-3.331,2.143z M-6.262,1.668c0.596,0.017,1.193-0.053,1.773,0.158
	c0.07,0.017,0.139,0.053,0.263,0.105c-0.386,0.141-0.685,0.246-1.001,0.369C-6.016,2.582-6.666,3.073-7.21,3.706
	c-0.386,0.438-0.684,0.948-1.018,1.421C-8.386,5.391-8.299,5.531-8,5.514c0.72-0.017,1.388-0.193,2.036-0.492
	c0.915-0.421,1.687-1.036,2.283-1.879c0.017-0.035,0.07-0.052,0.158-0.122c-0.052,0.807-0.21,1.492-0.615,2.106
	c-0.07,0.088-0.28,0.141-0.403,0.124c-1.106-0.124-2.142,0.088-3.019,0.791c-0.333,0.263-0.633,0.597-0.932,0.913
	c-0.421-0.615-0.859-1.247-1.316-1.896c0.228-0.088,0.458-0.141,0.685-0.246c1.247-0.526,2.054-1.457,2.422-2.757
	C-6.647,1.827-6.561,1.668-6.262,1.668z M-9.826,4.723c0.018-1.176,1.668-2.826,2.827-2.862C-6.947,2.969-8.351,4.601-9.826,4.723z
	 M-7.28-1.684c0,0.176,0.035,0.351,0,0.526c-0.316,1.72-1.176,3.055-2.721,3.933c-0.053,0.035-0.104,0.052-0.158,0.07
	c-0.035,0.018-0.069,0.018-0.158,0.018c0.018-0.264,0.018-0.492,0.071-0.72c0.315-1.546,1.124-2.756,2.475-3.617
	C-7.614-1.579-7.438-1.614-7.28-1.684z M-10.229-0.964c0.631-0.369,1.316-0.598,2.124-0.633c-0.088,0.106-0.141,0.159-0.194,0.212
	c-0.913,0.701-1.633,1.579-1.982,2.702c-0.158,0.51-0.229,1.036-0.316,1.581c-0.052,0.316,0.087,0.403,0.386,0.264
	c1.088-0.563,1.983-1.335,2.545-2.441c0.21-0.403,0.334-0.861,0.509-1.299c0.035-0.07,0.07-0.158,0.123-0.298
	c0.263,0.791,0.315,1.511,0.193,2.248C-6.86,1.458-6.964,1.563-7.053,1.582C-8.649,2.02-9.65,3.038-10.106,4.619
	c0,0.035-0.036,0.052-0.054,0.07c-0.631-0.421-1.264-0.843-1.895-1.264c0.245-0.263,0.543-0.527,0.789-0.807
	c0.79-0.932,1.071-2.02,0.913-3.23C-10.353-0.719-10.318-0.912-10.229-0.964z M-12.161,3.162c-0.456-0.791,0.124-2.968,1.492-3.81
	C-10.371,0.879-10.984,2.388-12.161,3.162z M-13.337,1.599c-0.702-1.405-0.368-4.074,1.018-5.372
	C-11.669-2.597-11.862,0.125-13.337,1.599z M-14.811-1.948c0.456-0.631,1.035-1.124,1.807-1.457
	c-0.018,0.105-0.018,0.175-0.052,0.229C-13.811-2-14.039-0.719-13.863,0.651c0.052,0.403,0.193,0.789,0.315,1.176
	c0.054,0.141,0.176,0.175,0.282,0.053c0.527-0.581,0.965-1.229,1.229-1.984c0.352-0.949,0.369-1.932,0.245-2.915
	c0-0.018,0.018-0.035,0.054-0.104c0.14,0.175,0.315,0.333,0.421,0.526c0.228,0.474,0.456,0.965,0.631,1.475
	c0.036,0.087-0.052,0.263-0.158,0.334c-0.562,0.421-0.982,0.93-1.299,1.544c-0.368,0.719-0.509,1.474-0.403,2.282
	c0.017,0.193,0,0.263-0.21,0.228c-0.615-0.141-1.212-0.263-1.826-0.403c-0.071-0.018-0.141-0.035-0.211-0.07
	c0.157-0.369,0.315-0.702,0.438-1.054c0.193-0.562,0.263-1.159,0.141-1.756c-0.123-0.579-0.298-1.124-0.615-1.633
	C-14.865-1.719-14.865-1.877-14.811-1.948z M-15.022,2.599c-0.772-0.824-0.79-3.107-0.018-4.072
	C-14.267-0.63-14.162,1.599-15.022,2.599z M-17.744-3.826c1.494,1.509,1.651,4.091,1.054,5.39
	C-17.848,0.896-18.516-2.439-17.744-3.826z M-19.271-1.385c0.21-0.598,0.492-1.16,0.895-1.634c0.018-0.018,0.053-0.018,0.053-0.018
	c0,0.422,0,0.843,0,1.264c0.018,1.247,0.475,2.318,1.229,3.283c0.035,0.053,0.07,0.088,0.124,0.141
	c0.122,0.105,0.263,0.229,0.386,0.333c0.087-0.158,0.193-0.316,0.246-0.492c0.281-0.913,0.386-1.86,0.141-2.791
	c-0.176-0.685-0.492-1.353-0.755-2.036c0.229,0.104,0.508,0.21,0.72,0.403c0.315,0.263,0.597,0.562,0.878,0.843
	c0.157,0.157,0.174,0.298,0.052,0.509c-0.403,0.667-0.597,1.387-0.615,2.141c-0.017,0.703,0.176,1.353,0.527,1.949
	c0.036,0.07,0.071,0.141,0.105,0.228c-0.737,0.158-1.457,0.316-2.212,0.475c0-0.176-0.017-0.351,0-0.544
	c0.088-1.404-0.526-2.493-1.562-3.354C-19.305-0.895-19.376-1.07-19.271-1.385z M-19.376-0.63c1.193,0.683,1.896,2.492,1.562,3.792
	C-18.815,2.915-19.71,0.756-19.376-0.63z M-22.782-1.701c1.317,0.104,3.284,3.072,3.02,4.529
	C-21.15,2.599-22.922-0.034-22.782-1.701z M-23.08-0.719c0-0.017,0.035-0.035,0.104-0.087c0.071,0.228,0.141,0.438,0.211,0.631
	c0.404,1.229,1.194,2.159,2.23,2.897c0.211,0.141,0.438,0.281,0.668,0.403c0.332,0.176,0.473,0.089,0.438-0.28
	c-0.088-0.896-0.316-1.756-0.79-2.528c-0.405-0.668-0.932-1.247-1.563-1.703c-0.052-0.036-0.105-0.053-0.158-0.088
	c0.018-0.035,0.035-0.088,0.07-0.124c0.387,0.089,0.756,0.141,1.125,0.247c0.315,0.087,0.614,0.228,0.896,0.386
	c0.087,0.052,0.193,0.228,0.176,0.334c-0.264,1.632,0.332,2.914,1.562,3.95c0.035,0.035,0.071,0.088,0.141,0.14
	c-0.228,0.123-0.438,0.228-0.632,0.369c-0.368,0.264-0.719,0.527-1.07,0.808c-0.193,0.159-0.264,0.105-0.316-0.123
	c-0.457-1.51-1.457-2.476-2.968-2.914c-0.122-0.035-0.28-0.176-0.28-0.282C-23.291,0.634-23.291-0.051-23.08-0.719z M-20.254,4.706
	c-1.176,0.018-3.001-1.808-2.809-2.826C-21.887,1.897-20.183,3.617-20.254,4.706z M-24.923,1.686c0.404-0.035,0.825,0,1.228-0.017
	c0.211,0,0.299,0.106,0.352,0.299c0.386,1.422,1.281,2.387,2.651,2.931c0.141,0.054,0.298,0.089,0.456,0.124
	c-0.438,0.649-0.859,1.282-1.333,1.966c-0.106-0.141-0.211-0.281-0.334-0.422c-0.789-0.931-1.843-1.316-3.054-1.369
	c-0.21,0-0.421,0.069-0.614,0.052c-0.124,0-0.281-0.087-0.351-0.176c-0.316-0.438-0.614-1.387-0.562-2.054
	c0.07,0.07,0.141,0.104,0.175,0.158c0.667,0.913,1.509,1.579,2.58,1.948c0.544,0.194,1.143,0.281,1.704,0.352
	c0.298,0.036,0.369-0.105,0.228-0.387c-0.615-1.21-1.528-2.142-2.738-2.738c-0.369-0.175-0.774-0.28-1.16-0.421
	c0-0.017,0-0.052,0-0.071C-25.45,1.827-25.205,1.722-24.923,1.686z M-21.781,7.146c-1.352,0.298-2.985-0.299-3.827-1.58
	C-24.257,5.215-22.098,6.111-21.781,7.146z M-22.098,5.198c-1.264,0.369-4.09-1.475-4.581-3.02
	C-25.24,1.861-22.501,3.669-22.098,5.198z M-27.891,6.514c0.527-0.438,1.124-0.737,1.809-0.878c0.106-0.017,0.282,0.088,0.352,0.176
	c0.509,0.615,1.123,1.105,1.86,1.422c0.475,0.193,0.949,0.265,1.457,0.247c0.229,0,0.458,0,0.668,0
	c-0.159,0.755-0.316,1.457-0.456,2.177c-0.316-0.124-0.651-0.282-1.001-0.405c-0.755-0.28-1.509-0.245-2.247-0.017
	c-0.404,0.106-0.754,0.316-1.142,0.475c-0.087,0.035-0.228,0.035-0.298-0.018c-0.615-0.44-1.071-1.019-1.44-1.773
	c0.352,0.176,0.649,0.352,0.948,0.475c0.966,0.403,1.949,0.614,2.984,0.421c0.422-0.088,0.843-0.21,1.264-0.316
	c0.229-0.052,0.229-0.175,0.071-0.316c-0.772-0.72-1.65-1.21-2.704-1.439c-0.703-0.157-1.405-0.157-2.107-0.053
	c-0.018,0-0.053-0.018-0.105-0.035C-27.943,6.602-27.926,6.549-27.891,6.514z M-22.308,9.955c-1.141,0.79-2.844,0.843-4.108,0.017
	C-25.625,9.235-23.502,9.024-22.308,9.955z M-23.362,8.27c-1,0.824-4.423,0.158-5.407-1.088C-26.662,6.444-24.397,7.164-23.362,8.27
	z M-23.344,11.622c-1.404,1.439-4.126,1.722-5.407,1.038C-27.258,11.166-24.678,10.973-23.344,11.622z M-28.032,13.186
	c0.211,0.019,0.369,0.034,0.509,0.034c1.704,0.175,3.161-0.352,4.407-1.49c0.193-0.178,0.157-0.283-0.071-0.386
	c-0.93-0.388-1.895-0.425-2.879-0.282c-0.719,0.087-1.404,0.368-2.019,0.772c-0.052,0.035-0.104,0.069-0.175,0.105
	c-0.018-0.02-0.052-0.036-0.07-0.052c0.159-0.266,0.264-0.528,0.457-0.756c0.264-0.316,0.579-0.615,0.878-0.896
	c0.141-0.124,0.264-0.158,0.457-0.035c0.684,0.422,1.439,0.649,2.264,0.631c0.667-0.017,1.264-0.209,1.843-0.509
	c0.071-0.035,0.158-0.07,0.229-0.122c0.158,0.755,0.315,1.475,0.473,2.193c-0.21,0-0.438,0-0.648,0
	c-1.405-0.017-2.494,0.598-3.319,1.687c-0.193,0.262-0.369,0.174-0.614,0.123c-0.596-0.159-1.105-0.475-1.598-0.843
	C-27.943,13.324-27.96,13.273-28.032,13.186z M-21.781,12.78c-0.702,1.23-2.633,1.897-3.792,1.512
	C-24.853,13.062-22.922,12.378-21.781,12.78z M-26.644,17.696c0.175-1.351,2.879-3.141,4.529-3.002
	C-22.414,16.152-25.328,18.083-26.644,17.696z M-23.659,18.171c-0.72,0.141-1.388,0-2.16-0.193c0.159-0.071,0.229-0.122,0.315-0.142
	c1.51-0.367,2.617-1.297,3.441-2.579c0.106-0.157,0.193-0.332,0.264-0.491c0.035-0.088,0.053-0.21,0.018-0.283
	c-0.052-0.069-0.193-0.12-0.281-0.103c-1.72,0.176-3.159,0.894-4.213,2.298c-0.053,0.07-0.106,0.124-0.158,0.193
	c-0.035-0.016-0.07-0.016-0.104-0.034c0.087-0.405,0.156-0.823,0.28-1.21c0.089-0.283,0.211-0.544,0.369-0.81
	c0.052-0.088,0.229-0.157,0.333-0.14c1.44,0.19,2.652-0.228,3.651-1.265c0.141-0.14,0.265-0.298,0.387-0.438
	c0.457,0.649,0.895,1.279,1.3,1.86c-0.474,0.247-0.983,0.438-1.44,0.735c-0.86,0.562-1.404,1.372-1.651,2.372
	C-23.396,18.064-23.466,18.118-23.659,18.171z M-20.254,15.169c-0.053,1.211-1.423,2.721-2.826,2.825
	C-23.027,16.817-21.325,15.115-20.254,15.169z M-19.814,17.046c0.561,1.072-1.37,4.056-2.968,4.531
	C-23.062,20.171-21.237,17.398-19.814,17.046z M-19.745,20.804c-0.631,0.439-1.352,0.614-2.177,0.651
	c0.089-0.088,0.123-0.142,0.176-0.176c0.93-0.669,1.598-1.546,1.983-2.633c0.176-0.528,0.265-1.108,0.352-1.651
	c0.052-0.317-0.124-0.386-0.403-0.247c-1.492,0.772-2.494,1.931-3.038,3.53c-0.052,0.14-0.069,0.278-0.105,0.402
	c-0.035,0-0.069,0-0.104,0c-0.071-0.281-0.158-0.561-0.176-0.842c-0.035-0.369,0.018-0.756-0.017-1.142
	c-0.018-0.28,0.122-0.386,0.333-0.438c1.158-0.316,2.019-1,2.598-2.037c0.141-0.266,0.228-0.544,0.333-0.826
	c0.035-0.069,0.052-0.157,0.087-0.228c0.65,0.439,1.264,0.86,1.915,1.3c-0.106,0.104-0.228,0.229-0.369,0.333
	c-0.931,0.826-1.353,1.86-1.37,3.091c0,0.209,0.071,0.437,0.071,0.649C-19.657,20.627-19.692,20.77-19.745,20.804z M-17.813,16.731
	c0.28,1.352-0.281,2.914-1.545,3.793C-19.833,19.47-18.867,17.046-17.813,16.731z M-17.726,23.683
	c-0.807-1.106-0.176-4.404,1.019-5.407C-15.865,19.24-16.497,22.613-17.726,23.683z M-15.233,21.788
	c-0.42,0.667-1.017,1.104-1.756,1.421c0.158-0.298,0.316-0.596,0.458-0.911c0.509-1.178,0.613-2.389,0.263-3.636
	c-0.053-0.193-0.122-0.37-0.176-0.561c-0.07-0.228-0.193-0.212-0.315-0.07c-0.475,0.491-0.826,1.035-1.106,1.649
	c-0.457,1.02-0.544,2.072-0.387,3.161c0,0.035-0.017,0.069-0.035,0.174c-0.139-0.174-0.28-0.298-0.351-0.439
	c-0.246-0.508-0.473-1.035-0.684-1.579c-0.019-0.053,0.07-0.175,0.122-0.228c0.404-0.475,0.878-0.896,1.229-1.422
	c0.509-0.739,0.579-1.6,0.492-2.457c0-0.073,0-0.143,0-0.176c0.737,0.156,1.474,0.298,2.194,0.456
	c-0.123,0.298-0.281,0.633-0.42,0.982c-0.212,0.525-0.247,1.069-0.176,1.632c0.087,0.633,0.263,1.212,0.614,1.756
	C-15.215,21.577-15.198,21.716-15.233,21.788z M-15.022,21.367c-0.755-0.843-0.842-3.146,0-4.091
	C-14.197,18.292-14.215,20.329-15.022,21.367z M-12.319,23.702c-1.475-1.528-1.668-4.126-1.035-5.427
	C-12.178,19.102-11.493,22.576-12.319,23.702z M-10.756,21.209c-0.158,0.613-0.492,1.14-0.86,1.651
	c-0.018,0.031-0.052,0.051-0.104,0.085c0-0.543,0.017-1.053,0-1.562c-0.018-0.914-0.352-1.718-0.826-2.49
	c-0.193-0.316-0.457-0.617-0.685-0.898c-0.141-0.174-0.263-0.139-0.351,0.07c-0.386,0.968-0.438,1.986-0.28,3.005
	c0.122,0.719,0.386,1.402,0.79,2c0.018,0.035,0.035,0.069,0.018,0.158c-0.246-0.14-0.527-0.246-0.737-0.424
	c-0.334-0.278-0.631-0.595-0.931-0.911c-0.123-0.123-0.141-0.264-0.035-0.421c0.456-0.72,0.685-1.528,0.631-2.389
	c-0.035-0.614-0.21-1.209-0.526-1.753c-0.035-0.07-0.087-0.159-0.122-0.212c0.737-0.159,1.474-0.301,2.212-0.458
	c0,0.055,0,0.106,0,0.177c-0.176,1.58,0.438,2.809,1.632,3.79C-10.704,20.822-10.687,20.944-10.756,21.209z M-10.669,20.542
	c-0.508-0.317-0.842-0.738-1.106-1.212c-0.42-0.737-0.596-1.526-0.509-2.371c0.019-0.174,0.071-0.315,0.282-0.157
	C-10.88,17.696-10.405,19.102-10.669,20.542z M-7.263,21.558c-1.703-0.576-3.073-2.754-3.019-4.493
	C-9.088,17.029-7.034,20.083-7.263,21.558z M-6.823,20.014c-0.037,0.211-0.106,0.423-0.176,0.702
	c-0.071-0.121-0.123-0.174-0.141-0.247c-0.299-1.367-1.106-2.386-2.194-3.209c-0.282-0.214-0.598-0.389-0.913-0.562
	c-0.229-0.124-0.368-0.037-0.351,0.228c0.087,1.404,0.597,2.633,1.562,3.651c0.281,0.298,0.598,0.544,0.949,0.86
	c-0.334-0.035-0.598-0.019-0.86-0.089c-0.403-0.122-0.772-0.298-1.158-0.455c-0.194-0.089-0.265-0.192-0.229-0.456
	c0.176-1.265-0.141-2.405-1.036-3.354c-0.211-0.228-0.421-0.456-0.597-0.667c0.579-0.402,1.211-0.845,1.826-1.282
	c0.123,0.316,0.247,0.649,0.405,0.966c0.508,1.002,1.316,1.667,2.334,2.071c0.193,0.07,0.509,0.104,0.562,0.229
	c0.105,0.279,0.105,0.613,0.105,0.931C-6.753,19.592-6.789,19.804-6.823,20.014z M-9.826,15.186c1.001-0.175,2.914,1.72,2.827,2.828
	C-8.193,17.96-9.756,16.38-9.826,15.186z M-6.455,18.134c-0.106-0.016-0.211-0.174-0.247-0.298c-0.352-1.316-1.211-2.193-2.387-2.79
	c-0.105-0.051-0.246-0.088-0.369-0.121c-0.105-0.037-0.229-0.071-0.334-0.107c0.44-0.648,0.86-1.266,1.281-1.896
	c0.281,0.282,0.562,0.598,0.878,0.859c0.475,0.403,1.019,0.65,1.65,0.774c0.544,0.104,1.071,0.158,1.615,0.034
	c0.054-0.02,0.158,0.051,0.21,0.124c0.333,0.489,0.527,1.034,0.58,1.632c0.018,0.14,0.035,0.298,0.07,0.525
	c-0.105-0.104-0.175-0.14-0.21-0.211c-0.633-0.842-1.422-1.491-2.387-1.877c-0.44-0.175-0.931-0.247-1.405-0.37
	c-0.141-0.033-0.282-0.07-0.404-0.07c-0.105,0-0.246,0.02-0.316,0.089c-0.052,0.051-0.035,0.209,0,0.298
	c0.737,1.442,1.861,2.474,3.389,3.019c0.193,0.072,0.386,0.107,0.579,0.158C-4.998,18.189-5.718,18.312-6.455,18.134z
	 M-8.018,12.692c0.509,0.036,1.054,0.019,1.545,0.142c0.79,0.212,1.44,0.686,1.967,1.335c0.017,0.035,0.034,0.069,0.087,0.156
	c-0.229,0.037-0.421,0.106-0.597,0.088c-1.246-0.033-2.335-0.437-3.143-1.438C-8.334,12.765-8.193,12.676-8.018,12.692z
	 M-7.912,14.714c1.439-0.282,4.283,1.598,4.512,2.982C-4.612,18.118-7.755,16.046-7.912,14.714z M-2.593,13.694
	c-0.438,0.212-0.896,0.402-1.369,0.58c-0.071,0.034-0.247-0.07-0.316-0.141c-0.422-0.562-0.949-1-1.563-1.316
	c-0.703-0.369-1.475-0.458-2.247-0.404c-0.071,0-0.158,0-0.212,0c0.158-0.737,0.299-1.457,0.458-2.177
	c0.281,0.122,0.596,0.263,0.93,0.387c0.65,0.228,1.299,0.279,1.984,0.141c0.526-0.106,1.019-0.317,1.492-0.581
	c0.071-0.035,0.212-0.052,0.264-0.018c0.614,0.458,1.105,1.02,1.439,1.774c-0.088-0.036-0.158-0.036-0.193-0.07
	c-1.194-0.791-2.511-0.984-3.881-0.808c-0.386,0.054-0.754,0.193-1.106,0.314c-0.193,0.07-0.193,0.195-0.017,0.354
	c1.281,1.175,2.791,1.684,4.529,1.475c0.106-0.019,0.21-0.019,0.333-0.038c0.018,0,0.035,0.02,0.087,0.054
	C-2.207,13.395-2.383,13.59-2.593,13.694z M-6.701,11.604c1.493-0.647,3.898-0.387,5.407,1.037
	C-2.101,13.52-5.735,12.834-6.701,11.604z"/>
<rect x="4.57" y="13.906" fill="none" width="67.307" height="4.616"/>
<g enable-background="new    ">
	<path fill="#FFFFFF" d="M6.839,14.629v0.649H6.629c-0.022-0.07-0.044-0.132-0.067-0.186c-0.022-0.052-0.047-0.098-0.07-0.134
		c-0.024-0.034-0.051-0.062-0.082-0.086c-0.029-0.02-0.064-0.034-0.104-0.041c-0.039-0.01-0.087-0.015-0.143-0.015H5.486v1.123
		h0.459c0.062,0,0.111-0.007,0.147-0.024c0.035-0.02,0.065-0.049,0.088-0.093c0.024-0.042,0.046-0.11,0.068-0.2h0.202v0.823H6.25
		c-0.02-0.086-0.042-0.151-0.067-0.196c-0.024-0.041-0.053-0.074-0.085-0.093c-0.034-0.019-0.085-0.028-0.151-0.028H5.486v1.238
		h0.667c0.071,0,0.126-0.005,0.171-0.02c0.042-0.011,0.081-0.032,0.112-0.06c0.032-0.031,0.059-0.07,0.083-0.117
		c0.024-0.046,0.044-0.095,0.061-0.146c0.016-0.051,0.038-0.122,0.067-0.22h0.213l-0.041,0.75H4.835V17.45
		c0.088-0.022,0.148-0.049,0.178-0.076c0.03-0.028,0.05-0.068,0.06-0.119c0.009-0.052,0.014-0.13,0.014-0.237v-1.852
		c0-0.1-0.003-0.171-0.012-0.215c-0.007-0.045-0.018-0.083-0.035-0.105c-0.016-0.026-0.038-0.046-0.065-0.061
		c-0.028-0.015-0.074-0.032-0.139-0.051v-0.105H6.839z"/>
	<path fill="#FFFFFF" d="M10.947,14.734c-0.063,0.017-0.108,0.031-0.136,0.046c-0.028,0.02-0.05,0.037-0.066,0.061
		c-0.018,0.023-0.029,0.062-0.038,0.107c-0.008,0.047-0.011,0.118-0.011,0.218v1.852c0,0.098,0.003,0.168,0.009,0.212
		c0.007,0.044,0.018,0.079,0.032,0.105c0.016,0.024,0.038,0.046,0.066,0.063c0.029,0.018,0.077,0.034,0.144,0.052v0.104h-0.895
		V17.45c0.082-0.018,0.139-0.042,0.17-0.069c0.031-0.023,0.052-0.062,0.064-0.111c0.011-0.052,0.017-0.135,0.017-0.252v-0.818
		c0-0.217,0.003-0.435,0.009-0.656c0.007-0.218,0.014-0.372,0.022-0.45h-0.037l-0.849,2.12H9.204l-0.788-2.157H8.379
		c0.007,0.088,0.015,0.245,0.02,0.474c0.007,0.228,0.011,0.465,0.011,0.707v0.781c0,0.098,0.002,0.168,0.009,0.212
		c0.006,0.044,0.018,0.079,0.033,0.105c0.014,0.024,0.038,0.046,0.066,0.063c0.029,0.018,0.077,0.034,0.143,0.052v0.104H7.878V17.45
		c0.088-0.022,0.148-0.049,0.178-0.076c0.029-0.028,0.049-0.068,0.059-0.119c0.009-0.052,0.014-0.13,0.014-0.237v-1.852
		c0-0.1-0.003-0.171-0.01-0.215c-0.007-0.045-0.019-0.083-0.035-0.105c-0.017-0.026-0.038-0.046-0.066-0.061
		c-0.026-0.015-0.073-0.032-0.138-0.051v-0.105h0.765l0.751,2.086l0.828-2.086h0.725V14.734z"/>
	<path fill="#FFFFFF" d="M12.643,17.013c0,0.085,0.005,0.151,0.014,0.2c0.01,0.052,0.023,0.091,0.043,0.122
		c0.02,0.027,0.045,0.051,0.078,0.066c0.034,0.017,0.085,0.033,0.155,0.049v0.104h-0.94V17.45c0.088-0.022,0.147-0.049,0.177-0.076
		c0.031-0.028,0.05-0.068,0.06-0.119c0.01-0.052,0.014-0.13,0.014-0.237v-1.852c0-0.1-0.003-0.171-0.011-0.215
		c-0.007-0.045-0.019-0.083-0.035-0.105c-0.016-0.026-0.038-0.046-0.065-0.061c-0.028-0.015-0.074-0.032-0.139-0.051v-0.105h1.062
		c0.335,0,0.584,0.063,0.747,0.193c0.164,0.126,0.245,0.321,0.245,0.584c0,0.146-0.025,0.282-0.077,0.399
		c-0.051,0.119-0.124,0.217-0.219,0.291c-0.094,0.077-0.206,0.13-0.333,0.163c-0.129,0.032-0.264,0.052-0.406,0.052
		c-0.158,0-0.282-0.005-0.369-0.01V17.013z M12.643,16.125h0.249c0.162,0,0.294-0.023,0.4-0.065
		c0.104-0.041,0.185-0.111,0.241-0.209s0.084-0.228,0.084-0.392c0-0.12-0.016-0.223-0.049-0.307
		c-0.034-0.081-0.08-0.146-0.136-0.194c-0.058-0.052-0.128-0.09-0.207-0.107c-0.081-0.021-0.167-0.033-0.262-0.033
		c-0.142,0-0.248,0.005-0.32,0.01V16.125z"/>
	<path fill="#FFFFFF" d="M16.153,17.59c-0.171,0-0.327-0.027-0.467-0.084c-0.141-0.059-0.262-0.144-0.363-0.265
		c-0.1-0.121-0.178-0.272-0.234-0.456c-0.054-0.186-0.082-0.409-0.082-0.669c0-0.317,0.049-0.591,0.146-0.818
		c0.097-0.229,0.236-0.405,0.417-0.522c0.18-0.12,0.391-0.181,0.629-0.181c0.254,0,0.469,0.056,0.642,0.169
		c0.173,0.112,0.305,0.277,0.392,0.496c0.088,0.219,0.133,0.483,0.133,0.795c0,0.335-0.051,0.616-0.151,0.848
		c-0.1,0.229-0.241,0.401-0.422,0.516C16.609,17.532,16.396,17.59,16.153,17.59z M15.449,16.058c0,0.439,0.064,0.771,0.192,0.999
		c0.127,0.231,0.314,0.342,0.561,0.342c0.155,0,0.287-0.046,0.396-0.148c0.108-0.098,0.19-0.242,0.244-0.435
		c0.055-0.19,0.082-0.416,0.082-0.672c0-0.31-0.031-0.567-0.095-0.772c-0.063-0.205-0.15-0.354-0.26-0.446
		c-0.111-0.093-0.239-0.14-0.384-0.14c-0.128,0-0.238,0.027-0.331,0.088c-0.092,0.062-0.168,0.146-0.229,0.257
		c-0.06,0.111-0.104,0.246-0.132,0.402C15.462,15.688,15.449,15.864,15.449,16.058z"/>
	<path fill="#FFFFFF" d="M20.141,15.176l-0.686,2.396h-0.347l-0.623-2.327c-0.027-0.098-0.05-0.178-0.071-0.24
		c-0.022-0.061-0.043-0.106-0.064-0.144c-0.022-0.036-0.045-0.061-0.07-0.08c-0.025-0.018-0.061-0.032-0.107-0.046v-0.105h0.916
		v0.105c-0.088,0.019-0.15,0.044-0.185,0.078c-0.035,0.033-0.053,0.082-0.053,0.146c0,0.049,0.006,0.105,0.019,0.176
		c0.013,0.067,0.032,0.145,0.054,0.232l0.431,1.693l0.69-2.431h0.36l0.559,2.433l0.506-1.634c0.062-0.2,0.092-0.34,0.092-0.424
		c0-0.089-0.019-0.15-0.054-0.191c-0.037-0.037-0.097-0.064-0.182-0.078v-0.105h0.844v0.105c-0.042,0.014-0.076,0.031-0.103,0.049
		c-0.025,0.019-0.05,0.041-0.074,0.072c-0.023,0.032-0.049,0.079-0.077,0.145c-0.027,0.063-0.061,0.148-0.098,0.257l-0.78,2.314
		h-0.306L20.141,15.176z"/>
	<path fill="#FFFFFF" d="M24.958,14.629v0.649h-0.209c-0.022-0.07-0.047-0.132-0.069-0.186c-0.021-0.052-0.047-0.098-0.07-0.134
		c-0.022-0.034-0.051-0.062-0.078-0.086c-0.031-0.02-0.066-0.034-0.105-0.041c-0.039-0.01-0.086-0.015-0.142-0.015h-0.679v1.123
		h0.46c0.061,0,0.111-0.007,0.146-0.024c0.035-0.02,0.065-0.049,0.088-0.093c0.026-0.042,0.046-0.11,0.067-0.2h0.203v0.823h-0.203
		c-0.019-0.086-0.041-0.151-0.065-0.196c-0.024-0.041-0.055-0.074-0.088-0.093c-0.032-0.019-0.083-0.028-0.148-0.028h-0.46v1.238
		h0.664c0.073,0,0.128-0.005,0.173-0.02c0.042-0.011,0.081-0.032,0.111-0.06c0.033-0.031,0.061-0.07,0.084-0.117
		c0.022-0.046,0.047-0.095,0.06-0.146c0.02-0.051,0.04-0.122,0.07-0.22h0.212l-0.04,0.75h-1.986V17.45
		c0.089-0.022,0.149-0.049,0.177-0.076c0.033-0.028,0.051-0.068,0.061-0.119c0.01-0.052,0.015-0.13,0.015-0.237v-1.852
		c0-0.1-0.005-0.171-0.012-0.215c-0.008-0.045-0.019-0.083-0.035-0.105c-0.017-0.026-0.037-0.046-0.065-0.061
		c-0.027-0.015-0.074-0.032-0.14-0.051v-0.105H24.958z"/>
	<path fill="#FFFFFF" d="M26.658,16.282v0.73c0,0.103,0.003,0.178,0.012,0.225c0.01,0.046,0.019,0.081,0.037,0.105
		c0.015,0.024,0.037,0.043,0.063,0.056c0.025,0.015,0.071,0.034,0.14,0.052v0.104h-0.905V17.45c0.089-0.022,0.148-0.049,0.177-0.076
		c0.032-0.028,0.052-0.068,0.062-0.119c0.008-0.052,0.013-0.13,0.013-0.237v-1.852c0-0.1-0.005-0.171-0.011-0.215
		c-0.007-0.045-0.02-0.083-0.036-0.105c-0.016-0.026-0.036-0.046-0.064-0.061s-0.074-0.032-0.14-0.051v-0.105h1.061
		c0.335,0,0.587,0.063,0.749,0.184c0.168,0.122,0.251,0.31,0.251,0.566c0,0.195-0.056,0.359-0.163,0.5
		c-0.106,0.135-0.27,0.242-0.486,0.32v0.017c0.087,0.034,0.163,0.086,0.227,0.153c0.061,0.067,0.13,0.17,0.205,0.309l0.195,0.352
		c0.055,0.105,0.101,0.184,0.142,0.235c0.039,0.056,0.081,0.098,0.123,0.126c0.041,0.027,0.095,0.049,0.163,0.06v0.104H27.88
		c-0.057-0.076-0.107-0.156-0.156-0.244s-0.096-0.176-0.142-0.265l-0.191-0.358c-0.056-0.109-0.102-0.19-0.139-0.241
		c-0.037-0.052-0.07-0.086-0.103-0.107c-0.028-0.021-0.063-0.035-0.098-0.042c-0.035-0.01-0.088-0.015-0.158-0.015H26.658z
		 M26.658,14.827v1.274H26.9c0.124,0,0.225-0.01,0.303-0.027c0.076-0.02,0.148-0.052,0.213-0.103
		c0.068-0.051,0.119-0.121,0.158-0.21c0.04-0.088,0.059-0.2,0.059-0.327c0-0.137-0.023-0.249-0.07-0.34
		c-0.046-0.091-0.115-0.158-0.208-0.207c-0.096-0.047-0.225-0.07-0.382-0.07C26.842,14.817,26.739,14.822,26.658,14.827z"/>
	<path fill="#FFFFFF" d="M29.912,17.018c0,0.098,0.002,0.168,0.01,0.212c0.004,0.044,0.017,0.079,0.031,0.105
		c0.015,0.024,0.039,0.046,0.066,0.063s0.076,0.034,0.144,0.052v0.104h-0.906V17.45c0.088-0.022,0.148-0.049,0.179-0.076
		c0.029-0.028,0.049-0.068,0.059-0.119c0.009-0.052,0.013-0.13,0.013-0.237v-1.852c0-0.1-0.001-0.171-0.009-0.215
		c-0.009-0.045-0.019-0.083-0.038-0.105c-0.013-0.026-0.036-0.046-0.063-0.061c-0.029-0.015-0.075-0.032-0.14-0.051v-0.105h0.906
		v0.105c-0.065,0.017-0.109,0.031-0.137,0.046c-0.028,0.02-0.049,0.037-0.068,0.061c-0.015,0.023-0.027,0.062-0.036,0.107
		c-0.008,0.047-0.01,0.118-0.01,0.218V17.018z"/>
	<path fill="#FFFFFF" d="M32.929,16.395c0.051,0.088,0.095,0.163,0.128,0.226c0.037,0.065,0.072,0.138,0.108,0.217h0.029
		c-0.008-0.086-0.013-0.261-0.02-0.519c-0.007-0.259-0.01-0.493-0.01-0.703v-0.449c0-0.1-0.002-0.171-0.007-0.218
		c-0.006-0.044-0.018-0.08-0.032-0.103c-0.015-0.026-0.034-0.046-0.061-0.061c-0.027-0.015-0.074-0.032-0.14-0.051v-0.105h0.772
		v0.105c-0.064,0.019-0.111,0.031-0.138,0.046c-0.024,0.017-0.049,0.035-0.062,0.056c-0.019,0.024-0.03,0.059-0.037,0.105
		c-0.01,0.044-0.014,0.118-0.014,0.225v2.4h-0.27l-1.19-2c-0.075-0.125-0.129-0.214-0.158-0.271
		c-0.034-0.059-0.063-0.114-0.089-0.17h-0.038c0.01,0.111,0.017,0.31,0.021,0.596c0.005,0.288,0.008,0.576,0.008,0.859v0.438
		c0,0.098,0.002,0.168,0.009,0.212c0.005,0.044,0.019,0.079,0.032,0.105c0.015,0.024,0.037,0.046,0.065,0.063
		c0.03,0.018,0.079,0.034,0.145,0.052v0.104h-0.781V17.45c0.088-0.022,0.146-0.049,0.176-0.076c0.027-0.028,0.049-0.068,0.059-0.119
		c0.01-0.052,0.015-0.13,0.015-0.237v-1.852c0-0.1-0.003-0.171-0.013-0.215c-0.004-0.045-0.019-0.083-0.033-0.105
		c-0.018-0.026-0.039-0.046-0.066-0.061c-0.026-0.015-0.072-0.032-0.137-0.051v-0.105h0.669L32.929,16.395z"/>
	<path fill="#FFFFFF" d="M36.772,17.543l-0.167,0.047l-0.158-0.167c-0.093,0.056-0.188,0.098-0.288,0.125
		c-0.103,0.028-0.22,0.042-0.352,0.042c-0.361,0-0.635-0.125-0.816-0.372c-0.181-0.246-0.274-0.616-0.274-1.104
		c0-0.305,0.051-0.571,0.148-0.803c0.103-0.228,0.247-0.404,0.433-0.53c0.187-0.123,0.407-0.186,0.661-0.186
		c0.132,0,0.261,0.01,0.381,0.022c0.127,0.015,0.262,0.043,0.41,0.08v0.588h-0.21c-0.039-0.128-0.086-0.229-0.139-0.3
		c-0.052-0.075-0.117-0.125-0.188-0.153c-0.075-0.032-0.168-0.047-0.282-0.047c-0.152,0-0.291,0.049-0.409,0.149
		c-0.116,0.1-0.207,0.246-0.272,0.441c-0.064,0.195-0.097,0.433-0.097,0.706c0,0.28,0.027,0.522,0.081,0.718
		c0.056,0.2,0.14,0.348,0.247,0.45c0.109,0.1,0.241,0.148,0.4,0.148c0.169,0,0.293-0.034,0.376-0.108
		c0.081-0.072,0.12-0.187,0.12-0.339v-0.129c0-0.13-0.005-0.223-0.018-0.278c-0.015-0.057-0.038-0.103-0.075-0.133
		c-0.032-0.031-0.088-0.059-0.167-0.077v-0.107h0.865v0.107c-0.052,0.017-0.088,0.037-0.117,0.059
		c-0.022,0.021-0.044,0.049-0.058,0.081c-0.014,0.033-0.023,0.074-0.027,0.121c-0.005,0.049-0.008,0.115-0.008,0.205V17.543z"/>
	<path fill="#FFFFFF" d="M41.667,17.018c0,0.084,0,0.146,0.004,0.188c0.004,0.039,0.014,0.075,0.023,0.1
		c0.009,0.024,0.023,0.044,0.036,0.062c0.015,0.014,0.034,0.029,0.062,0.041c0.025,0.015,0.065,0.029,0.121,0.042v0.104h-0.898
		V17.45c0.079-0.018,0.135-0.042,0.168-0.064c0.03-0.026,0.052-0.063,0.064-0.112c0.012-0.051,0.02-0.134,0.02-0.256v-0.896h-1.194
		v0.896c0,0.098,0.003,0.168,0.013,0.212c0.004,0.044,0.014,0.079,0.03,0.105c0.016,0.024,0.037,0.046,0.067,0.063
		c0.028,0.018,0.074,0.034,0.142,0.052v0.104h-0.902V17.45c0.089-0.022,0.146-0.049,0.179-0.076
		c0.029-0.028,0.049-0.068,0.059-0.119c0.01-0.052,0.015-0.13,0.015-0.237v-1.852c0-0.1-0.003-0.171-0.013-0.215
		c-0.007-0.045-0.019-0.083-0.034-0.105c-0.017-0.026-0.04-0.046-0.065-0.061c-0.028-0.015-0.075-0.032-0.14-0.051v-0.105h0.902
		v0.105c-0.062,0.017-0.11,0.031-0.138,0.046c-0.027,0.02-0.049,0.037-0.065,0.061c-0.016,0.023-0.027,0.062-0.036,0.107
		c-0.008,0.047-0.013,0.118-0.013,0.218v0.759h1.194v-0.759c0-0.125-0.008-0.208-0.02-0.256c-0.013-0.046-0.032-0.081-0.06-0.104
		c-0.031-0.026-0.087-0.049-0.173-0.072v-0.105h0.898v0.105c-0.08,0.021-0.136,0.041-0.165,0.07c-0.03,0.022-0.054,0.06-0.066,0.11
		c-0.011,0.051-0.015,0.134-0.015,0.251V17.018z"/>
	<path fill="#FFFFFF" d="M44.104,17.59c-0.172,0-0.326-0.027-0.468-0.084c-0.142-0.059-0.262-0.144-0.362-0.265
		c-0.1-0.121-0.18-0.272-0.235-0.456c-0.053-0.186-0.081-0.409-0.081-0.669c0-0.317,0.049-0.591,0.146-0.818
		c0.098-0.229,0.237-0.405,0.417-0.522c0.179-0.12,0.391-0.181,0.63-0.181c0.253,0,0.467,0.056,0.641,0.169
		c0.173,0.112,0.303,0.277,0.391,0.496c0.09,0.219,0.134,0.483,0.134,0.795c0,0.335-0.051,0.616-0.151,0.848
		c-0.1,0.229-0.241,0.401-0.423,0.516C44.559,17.532,44.346,17.59,44.104,17.59z M43.398,16.058c0,0.439,0.063,0.771,0.193,0.999
		c0.126,0.231,0.312,0.342,0.559,0.342c0.157,0,0.288-0.046,0.396-0.148c0.109-0.098,0.189-0.242,0.244-0.435
		c0.057-0.19,0.083-0.416,0.083-0.672c0-0.31-0.031-0.567-0.096-0.772c-0.065-0.205-0.149-0.354-0.261-0.446
		c-0.112-0.093-0.237-0.14-0.384-0.14c-0.128,0-0.239,0.027-0.332,0.088c-0.091,0.062-0.168,0.146-0.229,0.257
		c-0.06,0.111-0.104,0.246-0.132,0.402C43.413,15.688,43.398,15.864,43.398,16.058z"/>
	<path fill="#FFFFFF" d="M48.508,16.544c0,0.155-0.014,0.29-0.044,0.404c-0.024,0.106-0.067,0.199-0.122,0.284
		c-0.049,0.073-0.112,0.137-0.188,0.19c-0.074,0.051-0.162,0.093-0.27,0.12c-0.104,0.033-0.228,0.047-0.371,0.047
		c-0.173,0-0.322-0.019-0.444-0.058c-0.124-0.04-0.227-0.103-0.308-0.189c-0.081-0.088-0.137-0.192-0.174-0.311
		c-0.038-0.122-0.054-0.273-0.054-0.456v-1.41c0-0.11-0.002-0.186-0.012-0.228c-0.005-0.036-0.017-0.07-0.03-0.093
		c-0.014-0.023-0.035-0.041-0.058-0.059c-0.029-0.017-0.075-0.034-0.145-0.053v-0.105h0.899v0.105
		c-0.081,0.021-0.137,0.041-0.167,0.07c-0.03,0.022-0.054,0.06-0.062,0.11c-0.015,0.051-0.02,0.134-0.02,0.251v1.517
		c0,0.14,0.015,0.257,0.044,0.35c0.031,0.093,0.07,0.167,0.124,0.218c0.052,0.054,0.115,0.093,0.188,0.117
		c0.072,0.023,0.165,0.031,0.271,0.031c0.1,0,0.189-0.015,0.266-0.051c0.074-0.034,0.137-0.088,0.188-0.157
		c0.049-0.075,0.086-0.161,0.104-0.266c0.02-0.103,0.027-0.244,0.027-0.418v-1.341c0-0.125-0.006-0.208-0.018-0.256
		c-0.015-0.046-0.033-0.081-0.061-0.104c-0.027-0.026-0.086-0.049-0.172-0.072v-0.105h0.855v0.105
		c-0.084,0.023-0.14,0.046-0.173,0.072c-0.03,0.025-0.05,0.062-0.062,0.108c-0.013,0.051-0.018,0.134-0.018,0.251V16.544z"/>
	<path fill="#FFFFFF" d="M49.922,16.888c0.028,0.125,0.066,0.226,0.115,0.298c0.049,0.074,0.11,0.128,0.188,0.162
		c0.079,0.036,0.177,0.051,0.298,0.051c0.167,0,0.298-0.041,0.387-0.129c0.088-0.086,0.134-0.215,0.134-0.382
		c0-0.107-0.019-0.195-0.056-0.271c-0.037-0.071-0.1-0.14-0.184-0.203c-0.086-0.065-0.212-0.141-0.386-0.227
		c-0.166-0.081-0.3-0.165-0.398-0.244c-0.095-0.079-0.168-0.162-0.217-0.255c-0.049-0.095-0.071-0.195-0.071-0.308
		c0-0.158,0.037-0.298,0.112-0.415c0.076-0.12,0.186-0.208,0.33-0.273c0.146-0.065,0.311-0.098,0.5-0.098
		c0.108,0,0.214,0.007,0.318,0.019c0.103,0.011,0.232,0.037,0.389,0.076v0.579h-0.213c-0.031-0.125-0.073-0.223-0.125-0.293
		c-0.051-0.069-0.106-0.12-0.176-0.148c-0.065-0.027-0.154-0.042-0.261-0.042c-0.093,0-0.177,0.02-0.249,0.051
		c-0.074,0.037-0.133,0.089-0.174,0.159c-0.042,0.066-0.065,0.148-0.065,0.246c0,0.103,0.019,0.187,0.056,0.255
		c0.037,0.07,0.093,0.136,0.169,0.195c0.077,0.062,0.19,0.129,0.342,0.203c0.185,0.09,0.326,0.175,0.427,0.254
		c0.1,0.078,0.179,0.17,0.234,0.271c0.059,0.101,0.086,0.218,0.086,0.353c0,0.148-0.022,0.277-0.071,0.381
		c-0.048,0.103-0.112,0.187-0.195,0.251c-0.085,0.065-0.183,0.112-0.301,0.143c-0.116,0.03-0.244,0.044-0.381,0.044
		c-0.227,0-0.484-0.037-0.778-0.113v-0.589H49.922z"/>
	<path fill="#FFFFFF" d="M54.434,14.629v0.649h-0.208c-0.024-0.07-0.044-0.132-0.068-0.186c-0.021-0.052-0.046-0.098-0.07-0.134
		c-0.024-0.034-0.05-0.062-0.081-0.086c-0.027-0.02-0.065-0.034-0.103-0.041c-0.041-0.01-0.088-0.015-0.144-0.015h-0.68v1.123h0.462
		c0.062,0,0.11-0.007,0.148-0.024c0.032-0.02,0.064-0.049,0.088-0.093c0.022-0.042,0.047-0.11,0.064-0.2h0.205v0.823h-0.205
		c-0.018-0.086-0.042-0.151-0.064-0.196c-0.023-0.041-0.054-0.074-0.086-0.093c-0.035-0.019-0.087-0.028-0.15-0.028H53.08v1.238
		h0.668c0.072,0,0.128-0.005,0.17-0.02c0.044-0.011,0.083-0.032,0.114-0.06c0.03-0.031,0.058-0.07,0.084-0.117
		c0.022-0.046,0.044-0.095,0.061-0.146c0.016-0.051,0.039-0.122,0.066-0.22h0.215l-0.042,0.75H52.43V17.45
		c0.089-0.022,0.148-0.049,0.179-0.076c0.03-0.028,0.049-0.068,0.059-0.119c0.009-0.052,0.014-0.13,0.014-0.237v-1.852
		c0-0.1-0.003-0.171-0.009-0.215c-0.01-0.045-0.02-0.083-0.038-0.105c-0.013-0.026-0.037-0.046-0.064-0.061
		c-0.028-0.015-0.075-0.032-0.14-0.051v-0.105H54.434z"/>
	<path fill="#FFFFFF" d="M57.728,17.018c0,0.084,0,0.146,0.005,0.188c0.005,0.039,0.011,0.075,0.021,0.1
		c0.012,0.024,0.023,0.044,0.037,0.062c0.014,0.014,0.035,0.029,0.061,0.041c0.026,0.015,0.067,0.029,0.124,0.042v0.104h-0.898
		V17.45c0.078-0.018,0.135-0.042,0.166-0.064c0.029-0.026,0.053-0.063,0.063-0.112c0.013-0.051,0.02-0.134,0.02-0.256v-0.896h-1.193
		v0.896c0,0.098,0.004,0.168,0.012,0.212c0.007,0.044,0.017,0.079,0.03,0.105c0.016,0.024,0.037,0.046,0.067,0.063
		c0.031,0.018,0.077,0.034,0.142,0.052v0.104h-0.901V17.45c0.088-0.022,0.148-0.049,0.179-0.076c0.03-0.028,0.049-0.068,0.058-0.119
		c0.01-0.052,0.015-0.13,0.015-0.237v-1.852c0-0.1-0.003-0.171-0.01-0.215c-0.01-0.045-0.019-0.083-0.037-0.105
		c-0.014-0.026-0.038-0.046-0.065-0.061s-0.073-0.032-0.139-0.051v-0.105h0.901v0.105c-0.06,0.017-0.106,0.031-0.135,0.046
		c-0.027,0.02-0.051,0.037-0.065,0.061c-0.018,0.023-0.029,0.062-0.037,0.107c-0.01,0.047-0.014,0.118-0.014,0.218v0.759h1.193
		v-0.759c0-0.125-0.007-0.208-0.02-0.256c-0.011-0.046-0.032-0.081-0.06-0.104c-0.03-0.026-0.087-0.049-0.17-0.072v-0.105h0.898
		v0.105c-0.08,0.021-0.136,0.041-0.168,0.07c-0.03,0.022-0.052,0.06-0.065,0.11c-0.009,0.051-0.014,0.134-0.014,0.251V17.018z"/>
	<path fill="#FFFFFF" d="M60.165,17.59c-0.173,0-0.329-0.027-0.471-0.084c-0.139-0.059-0.26-0.144-0.362-0.265
		c-0.098-0.121-0.177-0.272-0.231-0.456c-0.057-0.186-0.085-0.409-0.085-0.669c0-0.317,0.051-0.591,0.148-0.818
		c0.096-0.229,0.235-0.405,0.415-0.522c0.181-0.12,0.391-0.181,0.63-0.181c0.254,0,0.467,0.056,0.643,0.169
		c0.174,0.112,0.304,0.277,0.392,0.496c0.09,0.219,0.131,0.483,0.131,0.795c0,0.335-0.051,0.616-0.148,0.848
		c-0.103,0.229-0.242,0.401-0.423,0.516C60.62,17.532,60.407,17.59,60.165,17.59z M59.458,16.058c0,0.439,0.065,0.771,0.192,0.999
		c0.129,0.231,0.314,0.342,0.562,0.342c0.154,0,0.288-0.046,0.396-0.148c0.108-0.098,0.19-0.242,0.245-0.435
		c0.054-0.19,0.08-0.416,0.08-0.672c0-0.31-0.031-0.567-0.093-0.772c-0.065-0.205-0.151-0.354-0.262-0.446
		c-0.111-0.093-0.239-0.14-0.386-0.14c-0.127,0-0.237,0.027-0.33,0.088c-0.093,0.062-0.168,0.146-0.228,0.257
		c-0.061,0.111-0.106,0.246-0.136,0.402C59.472,15.688,59.458,15.864,59.458,16.058z"/>
	<path fill="#FFFFFF" d="M63.067,17.357h0.56c0.063,0,0.114-0.005,0.156-0.01c0.039-0.009,0.075-0.018,0.104-0.032
		c0.031-0.017,0.057-0.037,0.08-0.065c0.022-0.022,0.047-0.06,0.066-0.103c0.024-0.042,0.042-0.097,0.062-0.162
		c0.018-0.065,0.044-0.163,0.071-0.293h0.217l-0.042,0.862h-1.926V17.45c0.089-0.022,0.146-0.049,0.177-0.076
		c0.03-0.028,0.052-0.068,0.06-0.119c0.01-0.052,0.015-0.13,0.015-0.237v-1.852c0-0.1-0.005-0.171-0.015-0.215
		c-0.003-0.045-0.018-0.083-0.032-0.105c-0.018-0.026-0.039-0.046-0.063-0.061c-0.029-0.015-0.075-0.032-0.141-0.051v-0.105h0.902
		v0.105c-0.065,0.019-0.109,0.031-0.135,0.046c-0.028,0.015-0.049,0.032-0.065,0.056c-0.019,0.024-0.029,0.057-0.039,0.105
		c-0.007,0.046-0.012,0.122-0.012,0.225V17.357z"/>
	<path fill="#FFFFFF" d="M65.295,17.555V17.45c0.065-0.018,0.112-0.032,0.142-0.052c0.028-0.013,0.049-0.031,0.068-0.057
		c0.014-0.026,0.024-0.059,0.032-0.104c0.009-0.047,0.012-0.119,0.012-0.22v-1.852c0-0.103-0.003-0.171-0.012-0.218
		c-0.008-0.046-0.019-0.08-0.035-0.103c-0.017-0.026-0.039-0.046-0.065-0.061c-0.027-0.015-0.073-0.032-0.142-0.051v-0.105h0.94
		c0.269,0,0.49,0.031,0.662,0.091c0.173,0.059,0.319,0.145,0.435,0.261c0.122,0.117,0.21,0.261,0.266,0.433
		c0.061,0.173,0.088,0.376,0.088,0.616s-0.027,0.453-0.081,0.637c-0.053,0.185-0.137,0.337-0.239,0.464
		c-0.093,0.107-0.205,0.195-0.339,0.267c-0.107,0.059-0.237,0.098-0.382,0.124c-0.146,0.022-0.336,0.034-0.573,0.034H65.295z
		 M65.949,17.357c0.059,0.005,0.142,0.007,0.254,0.007c0.12,0,0.228-0.012,0.32-0.029c0.093-0.02,0.181-0.052,0.256-0.094
		c0.079-0.045,0.149-0.102,0.209-0.182c0.061-0.074,0.111-0.162,0.148-0.26c0.04-0.103,0.068-0.212,0.087-0.334
		c0.016-0.122,0.025-0.252,0.025-0.396c0-0.291-0.042-0.53-0.125-0.717c-0.085-0.187-0.2-0.32-0.354-0.409
		c-0.151-0.083-0.332-0.126-0.544-0.126c-0.098,0-0.19,0-0.276,0.007V17.357z"/>
	<path fill="#FFFFFF" d="M68.924,16.888c0.027,0.125,0.064,0.226,0.115,0.298c0.047,0.074,0.112,0.128,0.186,0.162
		c0.08,0.036,0.178,0.051,0.301,0.051c0.165,0,0.295-0.041,0.384-0.129c0.089-0.086,0.136-0.215,0.136-0.382
		c0-0.107-0.02-0.195-0.057-0.271c-0.036-0.071-0.098-0.14-0.181-0.203c-0.087-0.065-0.215-0.141-0.387-0.227
		c-0.167-0.081-0.3-0.165-0.397-0.244c-0.095-0.079-0.17-0.162-0.217-0.255c-0.049-0.095-0.071-0.195-0.071-0.308
		c0-0.158,0.037-0.298,0.111-0.415c0.077-0.12,0.183-0.208,0.329-0.273c0.147-0.065,0.312-0.098,0.501-0.098
		c0.107,0,0.214,0.007,0.316,0.019c0.103,0.011,0.232,0.037,0.391,0.076v0.579H70.17c-0.032-0.125-0.074-0.223-0.125-0.293
		c-0.049-0.069-0.107-0.12-0.176-0.148c-0.066-0.027-0.153-0.042-0.262-0.042c-0.092,0-0.175,0.02-0.246,0.051
		c-0.075,0.037-0.137,0.089-0.178,0.159c-0.042,0.066-0.064,0.148-0.064,0.246c0,0.103,0.018,0.187,0.056,0.255
		c0.037,0.07,0.093,0.136,0.172,0.195c0.074,0.062,0.19,0.129,0.342,0.203c0.184,0.09,0.323,0.175,0.426,0.254
		c0.1,0.078,0.18,0.17,0.234,0.271c0.059,0.101,0.087,0.218,0.087,0.353c0,0.148-0.023,0.277-0.072,0.381
		c-0.047,0.103-0.115,0.187-0.196,0.251c-0.083,0.065-0.183,0.112-0.3,0.143c-0.115,0.03-0.244,0.044-0.381,0.044
		c-0.226,0-0.484-0.037-0.777-0.113v-0.589H68.924z"/>
</g>
</svg>
