<?xml version="1.0" standalone="no"?>
<!DOCTYPE svg PUBLIC "-//W3C//DTD SVG 1.1//EN" "http://www.w3.org/Graphics/SVG/1.1/DTD/svg11.dtd" >
<svg xmlns="http://www.w3.org/2000/svg" xmlns:xlink="http://www.w3.org/1999/xlink" version="1.1">
<metadata></metadata>
<defs>
<font id="ek_muktasemibold" horiz-adv-x="1142" >
<font-face units-per-em="2048" ascent="1638" descent="-410" />
<missing-glyph horiz-adv-x="466" />
<glyph unicode="&#xfb01;" horiz-adv-x="1148" d="M35 797v176h145v96q0 186 110.5 290.5t295.5 104.5q72 0 148.5 -18.5t129.5 -46.5l-47 -160q-39 16 -83 26.5t-87 10.5q-113 0 -170 -53.5t-57 -182.5v-67h598v-973h-242v797h-356v-797h-240v797h-145z" />
<glyph unicode="&#xfb02;" horiz-adv-x="1161" d="M35 797v176h145v86q0 94 32 170t89 128t138 79.5t179 27.5q74 0 135.5 -11t111.5 -28.5t90 -37t69 -35.5v-1352h-238v797h-366v-797h-240v797h-145zM420 973h366v278q-31 10 -63.5 17.5t-65.5 7.5q-117 0 -177 -55.5t-60 -190.5v-57z" />
<glyph unicode="&#xfb03;" horiz-adv-x="1787" d="M35 797v176h145v147q0 166 92 255t252 89q70 0 132.5 -16t115.5 -45l-53 -160q-35 16 -65.5 24.5t-67.5 8.5q-86 0 -126 -49t-40 -166v-88h395v96q0 186 110.5 290.5t295.5 104.5q72 0 148.5 -18.5t129.5 -46.5l-47 -160q-39 16 -83 26.5t-87 10.5q-113 0 -170 -53.5 t-57 -182.5v-67h598v-973h-242v797h-356v-797h-240v797h-395v-797h-240v797h-145z" />
<glyph unicode="&#xfb04;" horiz-adv-x="1775" d="M35 797v176h145v147q0 166 92.5 255t251.5 89q70 0 132.5 -16t115.5 -45l-53 -160q-35 16 -65.5 24.5t-67.5 8.5q-86 0 -126 -49t-40 -166v-88h387v86q0 94 31.5 170t89 128t138.5 79.5t179 27.5q74 0 135.5 -11t111.5 -28.5t90 -37t69 -35.5v-1352h-238v797h-366v-797 h-240v797h-387v-797h-240v797h-145zM1047 973h366v278q-31 10 -63.5 17.5t-65.5 7.5q-117 0 -177 -55.5t-60 -190.5v-57z" />
<glyph horiz-adv-x="0" />
<glyph unicode="&#xd;" horiz-adv-x="2101" />
<glyph unicode=" "  horiz-adv-x="466" />
<glyph unicode="&#x09;" horiz-adv-x="466" />
<glyph unicode="&#xa0;" horiz-adv-x="466" />
<glyph unicode="!" horiz-adv-x="526" d="M119 127q0 63 43 105t102 42t101.5 -42t42.5 -105q0 -66 -42 -106.5t-102 -40.5q-59 0 -102 40.5t-43 106.5zM137 1454h254l-33 -1005h-192z" />
<glyph unicode="&#x22;" horiz-adv-x="718" d="M94 1323h211l-31 -465h-147zM414 1323h211l-33 -465h-148z" />
<glyph unicode="#" horiz-adv-x="1265" d="M72 438v160h245l56 342h-230v160h256l66 416h158l-68 -418h281l65 418h158l-68 -416h209v-160h-233l-58 -342h221v-160h-241l-72 -438h-160l70 438h-276l-72 -438h-158l68 438h-217zM475 598h277l55 342h-277z" />
<glyph unicode="$" horiz-adv-x="1116" d="M129 913q0 76 25.5 139.5t72.5 109.5t113 73t145 31v219h164v-219q61 -6 127 -25.5t131 -54.5l-65 -178q-66 35 -136.5 54t-140.5 19q-82 0 -135 -35.5t-53 -107.5q0 -66 46 -99.5t144 -66.5l95 -31q156 -51 236.5 -139t80.5 -223q0 -143 -96.5 -238.5t-264.5 -117.5 v-226h-163v223q-92 8 -169 32t-153 71l84 174q78 -49 156 -69.5t145 -20.5q104 0 158.5 41t54.5 112q0 66 -46 104t-150 73l-99 32q-66 20 -122 51t-97 72t-64.5 95.5t-23.5 125.5z" />
<glyph unicode="%" horiz-adv-x="1656" d="M57 1149q0 78 23.5 147.5t69 123t110 85t146.5 31.5t145 -31.5t107 -85t67 -123t23 -147.5t-23 -148.5t-66 -124t-108.5 -84t-151.5 -30.5q-84 0 -147.5 30.5t-106.5 84t-65.5 124t-22.5 148.5zM246 1149q0 -49 8 -95t26.5 -80t48 -54.5t70.5 -20.5q84 0 122 69.5 t38 180.5q0 45 -7 88t-25.5 77t-48 54.5t-72.5 20.5q-41 0 -72 -19.5t-50.5 -52.5t-28.5 -77t-9 -91zM313 0l895 1536h154l-895 -1536h-154zM907 367q0 78 23.5 147.5t68.5 122.5t110 85t146 32q82 0 145.5 -32t107.5 -85t66.5 -122.5t22.5 -147.5t-22.5 -149t-66.5 -124 t-108.5 -83.5t-150.5 -30.5q-84 0 -147.5 30.5t-106.5 83.5t-65.5 124t-22.5 149zM1096 367q0 -49 8 -95.5t26.5 -80t47 -54t71.5 -20.5q82 0 121 69.5t39 180.5q0 47 -8 92t-25.5 79.5t-47.5 56t-73 21.5t-72.5 -20.5t-49 -54t-28.5 -79.5t-9 -95z" />
<glyph unicode="&#x26;" horiz-adv-x="1382" d="M57 383q0 260 305 393q-49 51 -86.5 125t-37.5 158q0 72 26.5 130t75.5 99t116.5 62.5t149.5 21.5q76 0 141.5 -22.5t112.5 -63.5t75 -96t28 -123q0 -104 -58.5 -176t-142.5 -113l-115 121q43 25 72 68t29 96q0 61 -41 102t-105 41q-72 0 -106.5 -39t-34.5 -102 q0 -76 42 -141.5t128 -151.5l330 -338q29 47 57.5 113.5t50.5 128.5l182 -74q-31 -88 -73.5 -172t-77.5 -137l286 -293h-282l-139 141q-57 -61 -165 -111t-261 -50q-111 0 -200 28.5t-151.5 81.5t-96.5 127t-34 166zM291 389q0 -115 75.5 -172t200.5 -57q90 0 161 33.5 t108 80.5l-361 369q-74 -35 -129 -96.5t-55 -157.5z" />
<glyph unicode="'" horiz-adv-x="399" d="M94 1323h211l-33 -465h-147z" />
<glyph unicode="(" horiz-adv-x="626" d="M92 571q0 143 27.5 271.5t75 240t106.5 204.5t125 167l129 -80q-104 -166 -174 -366.5t-70 -436.5q0 -117 16.5 -221t48.5 -202.5t77 -191.5t102 -189l-133 -80q-63 82 -122.5 177t-106 203.5t-74 233.5t-27.5 270z" />
<glyph unicode=")" horiz-adv-x="626" d="M72 -229q55 90 99 182t77 189.5t50 204t17 222.5q0 238 -66.5 433.5t-176.5 375.5l131 76q63 -80 123.5 -173t106.5 -203.5t74 -237.5t28 -271q0 -143 -29 -270t-75 -237.5t-106.5 -204t-121.5 -170.5z" />
<glyph unicode="*" horiz-adv-x="741" d="M29 1108l47 141l133 -41l141 -82l-45 152v137h154v-137l-45 -152l139 82l133 41l47 -141l-135 -43l-158 -10l119 -101l86 -114l-123 -90l-82 114l-59 148l-59 -148l-86 -114l-121 90l88 114l119 101l-156 10z" />
<glyph unicode="+" horiz-adv-x="1140" d="M72 541v161h417v418h162v-418h418v-161h-418v-418h-162v418h-417z" />
<glyph unicode="," horiz-adv-x="471" d="M80 -240q59 33 106 87.5t62 125.5l-33 7q-61 10 -95 54t-34 103t40 104.5t114 45.5q29 0 58.5 -11.5t54 -37t41 -69.5t16.5 -110t-21.5 -126t-56.5 -111t-82 -92t-98 -68z" />
<glyph unicode="-" horiz-adv-x="573" d="M61 500v192h451v-192h-451z" />
<glyph unicode="." horiz-adv-x="462" d="M100 133q0 66 45 110t107 44q61 0 104 -44t43 -110q0 -72 -43 -112.5t-104 -40.5t-106.5 40.5t-45.5 112.5z" />
<glyph unicode="/" horiz-adv-x="757" d="M-2 -223l582 1759h184l-582 -1759h-184z" />
<glyph unicode="0" horiz-adv-x="1198" d="M78 647q0 168 43 293t114.5 208t166 123t198.5 40q113 0 208 -38t164.5 -118t109.5 -206t40 -302t-43 -302t-114.5 -207t-165.5 -119.5t-199 -38.5q-113 0 -208 37.5t-164.5 118.5t-109.5 208t-40 303zM328 647q0 -145 22.5 -239.5t60.5 -148.5t88 -75.5t103 -21.5 t102.5 22.5t86 78.5t59 149.5t22.5 234.5q0 143 -22.5 237.5t-60 147.5t-87 74.5t-102.5 21.5t-102 -22.5t-87 -76.5t-60.5 -147.5t-22.5 -234.5z" />
<glyph unicode="1" horiz-adv-x="806" d="M102 1135l338 155h193v-1290h-238v1061l-237 -113z" />
<glyph unicode="2" horiz-adv-x="999" d="M82 164l178 178q106 106 180 188t119 148.5t65.5 123t20.5 111.5q0 98 -51 153.5t-139 55.5q-66 0 -124.5 -23.5t-125.5 -76.5l-101 156q84 70 173.5 101.5t199.5 31.5q100 0 178 -29t130.5 -80t79 -120.5t26.5 -151.5q0 -139 -103.5 -290t-289.5 -331l-127 -119h540 v-190h-786z" />
<glyph unicode="3" horiz-adv-x="1015" d="M76 51l51 176q66 -29 125 -45t143 -16q51 0 97.5 11t81 36t54 61.5t19.5 87.5q0 96 -67.5 146.5t-188.5 50.5h-149v180h110q117 0 185.5 52.5t68.5 154.5q0 82 -56 131t-140 49q-59 0 -112.5 -16t-119.5 -55l-76 162q76 49 161 71.5t183 22.5q92 0 167 -25.5t128.5 -71 t82 -106.5t28.5 -133q0 -121 -62.5 -198t-152.5 -111q117 -25 188.5 -108t71.5 -200q0 -100 -38 -171.5t-103.5 -117.5t-151.5 -67.5t-182 -21.5q-98 0 -188.5 18t-157.5 53z" />
<glyph unicode="4" horiz-adv-x="1128" d="M41 307v154l569 829h264v-792h193v-191h-193v-307h-229v307h-604zM295 498h350v336l10 227h-4l-112 -209z" />
<glyph unicode="5" horiz-adv-x="1075" d="M119 45l51 182q51 -25 109.5 -41t128.5 -16q141 0 215.5 64.5t74.5 177.5q0 119 -83 178t-207 59q-55 0 -110.5 -8t-109.5 -18l64 667l645 4v-190l-461 -4l-33 -287q29 4 51.5 6t51.5 2q84 0 164 -22.5t141 -70.5t99 -123t38 -181q0 -92 -31.5 -173t-97 -141.5t-164 -95 t-229.5 -34.5q-90 0 -169 18t-138 47z" />
<glyph unicode="6" horiz-adv-x="1103" d="M82 596q0 193 49 329t131 222t185.5 125t214.5 39q72 0 135 -10.5t123 -36.5l-56 -185q-43 23 -91 34t-105 11q-80 0 -140.5 -28.5t-102.5 -78.5t-65.5 -120t-27.5 -152q53 57 128 85t156 28q88 0 165 -28.5t132.5 -83t87 -133t31.5 -179.5q0 -102 -33.5 -185t-94 -143.5 t-145.5 -93t-188 -32.5q-90 0 -177 32.5t-156.5 105t-112.5 190.5t-43 288zM330 465q0 -63 17.5 -118.5t48 -97.5t75.5 -65.5t100 -23.5q49 0 90 20.5t70 57t44.5 86t15.5 104.5q0 125 -61.5 185.5t-164.5 60.5q-74 0 -126 -33t-81 -74q-28 -41 -28 -102z" />
<glyph unicode="7" horiz-adv-x="1013" d="M106 1110v180h824v-157l-549 -1178l-209 90l522 1065h-588z" />
<glyph unicode="8" horiz-adv-x="1054" d="M68 340q0 127 68.5 200.5t187.5 123.5q-96 43 -154.5 118.5t-58.5 173.5q0 68 26.5 131.5t79.5 113.5t132.5 80t185.5 30q104 0 183 -28t131 -74t78.5 -105.5t26.5 -122.5q0 -98 -62.5 -175t-172.5 -124q121 -45 194.5 -121t73.5 -199q0 -90 -33.5 -160.5t-95 -119.5 t-146.5 -75.5t-188 -26.5q-100 0 -184 25.5t-144.5 72.5t-94 113.5t-33.5 148.5zM311 348q0 -80 56.5 -134t162.5 -54q98 0 156.5 55t58.5 133q0 88 -66.5 143t-164.5 80q-90 -29 -146.5 -82t-56.5 -141zM342 973q0 -84 58.5 -134.5t140.5 -74.5q74 29 127 80t53 123 q0 80 -54.5 124t-136.5 44q-92 0 -140 -49.5t-48 -112.5z" />
<glyph unicode="9" horiz-adv-x="1089" d="M78 862q0 100 32.5 183t94 142.5t147.5 91.5t193 32q90 0 173 -34t147.5 -107.5t103.5 -189.5t39 -280q0 -190 -43 -327t-119 -224.5t-177 -128t-220 -40.5q-100 0 -173 15t-124 42l53 180q43 -20 96 -35.5t129 -15.5q160 0 239 99.5t89 279.5q-45 -47 -112.5 -75 t-149.5 -28q-92 0 -169 28t-132.5 82t-86 132t-30.5 178zM319 877q0 -129 61.5 -189.5t164.5 -60.5q66 0 114 27.5t74 68.5q14 20 19.5 43.5t5.5 56.5q0 63 -15.5 118.5t-44 97.5t-69.5 66.5t-92 24.5q-100 0 -159 -65.5t-59 -187.5z" />
<glyph unicode=":" horiz-adv-x="487" d="M94 143q0 66 45 109t105 43q61 0 105 -43t44 -109q0 -72 -44 -113.5t-105 -41.5q-59 0 -104.5 41.5t-45.5 113.5zM94 756q0 66 45 108.5t105 42.5q61 0 105 -43t44 -108q0 -72 -44 -114t-105 -42q-59 0 -104.5 42t-45.5 114z" />
<glyph unicode=";" horiz-adv-x="481" d="M80 -240q59 33 106 87.5t62 125.5l-33 7q-61 10 -95 54t-34 103t40 104.5t114 45.5q29 0 58.5 -11.5t54 -37t41 -69.5t16.5 -110t-21.5 -126t-56.5 -111t-82 -92t-98 -68zM94 715q0 66 45 108.5t107 42.5q61 0 104 -43t43 -108q0 -72 -43 -114t-104 -42t-106.5 42 t-45.5 114z" />
<glyph unicode="&#x3c;" horiz-adv-x="995" d="M125 451v139l745 420v-189l-561 -301l561 -301v-188z" />
<glyph unicode="=" horiz-adv-x="927" d="M72 328h784v159h-784v-159zM72 715v159h784v-159h-784z" />
<glyph unicode="&#x3e;" horiz-adv-x="995" d="M125 31v188l561 301l-561 301v189l745 -420v-139z" />
<glyph unicode="?" horiz-adv-x="899" d="M109 1372q59 43 141 67.5t168 24.5q94 0 169 -26.5t126 -72.5t77.5 -109.5t26.5 -137.5q0 -109 -57.5 -194.5t-141.5 -167.5q-43 -43 -74.5 -74t-52 -57.5t-30.5 -52t-10 -56.5q0 -41 14 -82l-201 -31q-10 27 -16 60t-6 65q0 88 43 152.5t121 146.5q39 39 69.5 73 t52 65.5t32.5 65.5t11 75q0 66 -43 114t-137 48q-49 0 -96 -14.5t-96 -49.5zM238 127q0 63 43 105t102 42t101 -42t42 -105q0 -66 -42 -106.5t-101 -40.5t-102 40.5t-43 106.5z" />
<glyph unicode="@" horiz-adv-x="1976" d="M115 571q31 199 123 356.5t225 266.5t296 166t339 57q215 0 374.5 -70.5t259 -192.5t136.5 -287t6 -353q-23 -135 -76 -232.5t-126 -160t-157.5 -93t-173.5 -30.5q-47 0 -88 6t-65 16l-47 97h-4q-66 -66 -139.5 -101.5t-184.5 -35.5q-72 0 -127 23.5t-91 64.5t-50.5 95 t-3.5 118q12 82 54 140t106.5 95t145.5 54.5t173 17.5h143l11 61q16 86 -25 125t-125 39q-55 0 -128 -20.5t-155 -63.5l-57 158q98 51 191.5 77.5t197.5 26.5q86 0 153.5 -19.5t111.5 -62.5t62.5 -111.5t4.5 -166.5l-53 -328q-16 -82 -2 -115.5t63 -33.5q39 0 79 21.5 t77 67.5t67.5 118.5t46.5 175.5q25 147 -3.5 279t-103.5 230.5t-193.5 156t-276.5 57.5q-63 0 -139 -10.5t-156 -38t-160 -74.5t-147.5 -123t-119.5 -183.5t-79 -252.5q-29 -164 -17.5 -291t53.5 -223.5t109.5 -163t148.5 -108.5t173 -60.5t182 -18.5q131 0 223.5 21.5 t174.5 56.5l43 -145q-86 -37 -209 -66t-264 -29q-172 0 -337 54.5t-285 175.5t-175 315.5t-10 474.5zM780 279q-12 -72 29 -104t100 -32t110.5 26t92.5 73l31 202l-111 -4q-129 -4 -185 -49t-67 -112z" />
<glyph unicode="A" horiz-adv-x="1265" d="M14 0l496 1290h250l489 -1290h-264l-115 317h-481l-115 -317h-260zM449 504h358l-68 190q-29 86 -54.5 162t-51.5 166h-4q-29 -84 -55.5 -163t-57.5 -165z" />
<glyph unicode="B" horiz-adv-x="1144" d="M150 0v1290h436q199 0 314.5 -87t115.5 -247q0 -59 -19.5 -105t-52.5 -80t-76 -56.5t-88 -34.5q55 -10 105.5 -34.5t88.5 -64.5t59.5 -94.5t21.5 -124.5q0 -80 -35 -146t-98.5 -114.5t-152.5 -75t-196 -26.5h-423zM399 193h142q53 0 100 10t82 32.5t54.5 60.5t19.5 91 q0 51 -22.5 87t-59.5 58.5t-86 32.5t-103 10h-127v-382zM399 766h140q94 0 157.5 40t63.5 132q0 80 -56.5 120t-156.5 40h-148v-332z" />
<glyph unicode="C" horiz-adv-x="1159" d="M84 645q0 154 47 278t134 210t208 132t268 46q131 0 215 -22.5t144 -53.5l-58 -188q-61 31 -124.5 49t-147.5 18q-86 0 -163 -25.5t-133 -82t-90 -145.5t-34 -216q0 -123 33 -212t88 -146.5t130 -84t161 -26.5q96 0 161.5 16.5t118.5 45.5l54 -189q-57 -29 -145.5 -49 t-215.5 -20q-139 0 -259 45t-207 130t-136 208.5t-49 281.5z" />
<glyph unicode="D" horiz-adv-x="1331" d="M150 0v1290h440q145 0 266 -39t208 -116.5t135 -193.5t48 -269q0 -178 -57 -306t-155.5 -209t-228.5 -119t-278 -38h-378zM399 197h111q90 0 175 21.5t150.5 74.5t105.5 145t40 234q0 205 -115.5 313.5t-312.5 108.5h-154v-897z" />
<glyph unicode="E" horiz-adv-x="1048" d="M150 0v1290h819v-196h-570v-326h516v-195h-516v-376h576v-197h-825z" />
<glyph unicode="F" horiz-adv-x="1009" d="M150 0v1290h798v-196h-549v-367h504v-195h-504v-532h-249z" />
<glyph unicode="G" horiz-adv-x="1284" d="M84 643q0 162 51 287t140.5 210t211.5 128t263 43q117 0 210 -18.5t168 -55.5l-53 -176q-72 35 -147.5 50t-153.5 15q-86 0 -162.5 -26.5t-135 -85t-92.5 -149.5t-34 -222q0 -231 103.5 -354t296.5 -123q121 0 188 27v319h-223v188h461v-643q-82 -35 -186.5 -56 t-239.5 -21q-139 0 -261 43t-212.5 126.5t-141.5 207.5t-51 286z" />
<glyph unicode="H" horiz-adv-x="1327" d="M150 0v1290h249v-522h531v522h250v-1290h-250v567h-531v-567h-249z" />
<glyph unicode="I" horiz-adv-x="546" d="M150 0v1290h249v-1290h-249z" />
<glyph unicode="J" horiz-adv-x="579" d="M-37 -143q57 0 97 17t69 46q37 35 48 90.5t11 120.5v1159h250v-1054q0 -156 -18.5 -253.5t-79.5 -172.5q-66 -82 -166 -115t-211 -33v195z" />
<glyph unicode="K" horiz-adv-x="1228" d="M150 0v1290h249v-557l475 557h312l-500 -565l541 -725h-309l-412 563l-107 -114v-449h-249z" />
<glyph unicode="L" horiz-adv-x="950" d="M150 0v1290h249v-1089h531v-201h-780z" />
<glyph unicode="M" horiz-adv-x="1691" d="M131 0l98 1290h318l205 -643q27 -84 50 -167t42 -163h8q8 35 19.5 77t23.5 86t23.5 87t23.5 80l199 643h317l103 -1290h-240q-16 211 -29.5 421t-17.5 421l-6 202h-6q-31 -121 -66 -247.5t-70 -231.5l-180 -565h-203l-184 565q-47 143 -78.5 263t-54.5 216h-4 q-4 -160 -13.5 -333.5t-19.5 -321.5l-22 -389h-236z" />
<glyph unicode="N" horiz-adv-x="1374" d="M150 0v1290h225l491 -725q41 -61 76 -121.5t55 -99.5h4q-12 141 -12 283.5v283.5v379h236v-1290h-226l-469 686q-47 70 -89 145.5t-64 122.5h-4q10 -152 11 -294t1 -289v-371h-235z" />
<glyph unicode="O" horiz-adv-x="1429" d="M86 643q0 158 48 282t133 210t201 131t251 45t249.5 -44t197.5 -129t130 -209t47 -286q0 -158 -48 -280.5t-133 -207.5t-200.5 -130t-250.5 -45t-250 43t-198 126.5t-130 207.5t-47 286zM352 643q0 -121 29 -209t79 -146.5t116.5 -87t142.5 -28.5t141.5 28.5t113.5 87 t75.5 146.5t27.5 209q0 123 -28.5 213t-78.5 148.5t-117 86t-142 27.5q-76 0 -141.5 -29.5t-113.5 -88t-76 -148.5t-28 -209z" />
<glyph unicode="P" horiz-adv-x="1122" d="M150 0v1290h436q109 0 196.5 -26.5t151 -76.5t97.5 -123t34 -167q0 -109 -39 -186.5t-106.5 -130t-159.5 -77t-199 -24.5h-162v-479h-249zM399 674h115q61 0 114.5 10t93.5 34.5t62.5 65.5t22.5 103q0 55 -20.5 95t-56.5 65.5t-83 38t-98 12.5h-150v-424z" />
<glyph unicode="Q" horiz-adv-x="1425" d="M86 643q0 158 48 282t132 210t200 131t251 45t249.5 -44t198.5 -129t131 -209t47 -286q0 -221 -96 -379t-280 -262l-254 -141q51 -2 97 -16.5t93 -30t100.5 -28.5t116.5 -13q47 0 96.5 14t81.5 41l91 -172q-41 -31 -110 -55.5t-155 -24.5q-82 0 -156.5 19.5t-143 43 t-135 43t-134.5 19.5q-59 0 -108.5 -15.5t-102.5 -45.5l-90 165l328 189q-113 18 -204 69.5t-155.5 134.5t-100.5 194.5t-36 250.5zM352 645q0 -121 27 -211t75 -149.5t112.5 -90t140.5 -30.5t143.5 31.5t118.5 92t79.5 150.5t28.5 207q0 123 -28.5 213t-78.5 147.5t-117 85 t-142 27.5q-76 0 -141.5 -28.5t-113.5 -88t-76 -148.5t-28 -208z" />
<glyph unicode="R" horiz-adv-x="1146" d="M150 0v1290h464q106 0 186.5 -30.5t134.5 -84t81.5 -125t27.5 -155.5q0 -78 -23.5 -137.5t-60 -104.5t-81.5 -74.5t-88 -48.5l325 -530h-285l-268 485h-170v-485h-243zM393 680h125q117 0 192.5 48t75.5 161q0 102 -60 155.5t-177 53.5h-156v-418z" />
<glyph unicode="S" horiz-adv-x="1077" d="M86 932q0 170 119 274.5t344 104.5q115 0 208 -21.5t171 -60.5l-58 -193q-84 41 -159.5 61.5t-149.5 20.5q-104 0 -162.5 -43t-58.5 -117q0 -72 48 -109.5t155 -72.5l125 -41q160 -53 243.5 -147t83.5 -223q0 -84 -32.5 -154t-94 -122t-150.5 -80.5t-202 -28.5 q-111 0 -215 21.5t-201 68.5l58 190q88 -43 172 -65.5t176 -22.5q111 0 173 43t62 125q0 29 -10 55.5t-35.5 50t-69.5 45t-114 44.5l-115 38q-141 49 -226 130t-85 229z" />
<glyph unicode="T" horiz-adv-x="1036" d="M20 1090v200h998v-200h-379v-1090h-250v1090h-369z" />
<glyph unicode="U" horiz-adv-x="1339" d="M141 520v770h250v-772q0 -178 66.5 -261t214.5 -83q145 0 210.5 89t65.5 231v796h250v-780q0 -268 -135 -399t-391 -131q-125 0 -223.5 31.5t-167 98t-104.5 169t-36 241.5z" />
<glyph unicode="V" horiz-adv-x="1226" d="M6 1290h264l232 -684q12 -33 26.5 -78t29.5 -92t29.5 -94t24.5 -86h6q10 37 23.5 83t28 92t29 90t26.5 81l240 688h258l-475 -1290h-265z" />
<glyph unicode="W" horiz-adv-x="1763" d="M12 1290h256l166 -651q6 -27 16.5 -74t20.5 -99t19.5 -104.5t13.5 -89.5h4q6 39 15 90.5t20.5 103.5t21.5 98t17 75l176 651h252l176 -649q6 -27 17 -74t21.5 -100t20.5 -105.5t17 -89.5h4q6 37 16 88.5t20.5 103.5t20.5 99t16 78l160 649h252l-346 -1290h-266l-178 678 q-23 84 -41.5 163t-38.5 169h-4q-18 -92 -35 -168t-39 -162l-172 -680h-264z" />
<glyph unicode="X" horiz-adv-x="1226" d="M20 0l424 655l-405 635h291l284 -469l287 469h285l-420 -635l440 -655h-295l-307 487l-301 -487h-283z" />
<glyph unicode="Y" horiz-adv-x="1159" d="M18 1290h279l291 -526l293 526h270l-446 -755v-535h-250v535z" />
<glyph unicode="Z" horiz-adv-x="1081" d="M51 0v164l641 934h-614v192h932v-143l-654 -954h668v-193h-973z" />
<glyph unicode="[" horiz-adv-x="610" d="M143 -326v1809h410v-156h-203v-1495h203v-158h-410z" />
<glyph unicode="\" horiz-adv-x="651" d="M0 1475h178l473 -1655h-178z" />
<glyph unicode="]" horiz-adv-x="610" d="M55 -168h203v1495h-203v156h410v-1809h-410v158z" />
<glyph unicode="^" horiz-adv-x="1044" d="M109 842l342 633h141l346 -633h-176l-240 487l-235 -487h-178z" />
<glyph unicode="_" horiz-adv-x="759" d="M14 -369h729v-143h-729v143z" />
<glyph unicode="`" horiz-adv-x="436" d="M37 1475h211l153 -338h-147z" />
<glyph unicode="a" horiz-adv-x="1024" d="M68 270q0 82 34.5 141.5t95 98.5t144.5 58.5t182 19.5h144v67q0 80 -47.5 114t-126.5 34q-57 0 -122 -18.5t-143 -63.5l-86 166q90 49 182.5 76.5t202.5 27.5q86 0 156 -19.5t121 -62.5t78.5 -111.5t27.5 -166.5v-631h-190l-25 102h-6q-103 -122 -294 -122h-3 q-154 0 -239.5 80.5t-85.5 209.5zM317 283q0 -76 45.5 -102.5t104.5 -26.5t113.5 29.5t89.5 82.5v168l-111 -4q-135 -4 -188.5 -46t-53.5 -101z" />
<glyph unicode="b" d="M131 0v1458h240v-579q57 53 128.5 82.5t151.5 29.5q195 0 307.5 -134t112.5 -374q0 -117 -35 -210t-96 -158.5t-144 -100t-178 -34.5q-96 0 -164.5 27.5t-123.5 82.5h-6l-19 -90h-174zM373 244q33 -39 78 -61.5t102 -22.5q51 0 100 18.5t86 58t59.5 99t22.5 143.5 q0 154 -63.5 239t-175.5 85q-63 0 -116.5 -31t-92.5 -74v-454z" />
<glyph unicode="c" horiz-adv-x="931" d="M74 483q0 115 38 209t106.5 161t163.5 102.5t210 35.5q63 0 131 -12t145 -49l-51 -172q-47 27 -96 41t-103 14q-135 0 -217 -83t-82 -241q0 -92 27 -155.5t70 -102t97.5 -55t109.5 -16.5q66 0 115.5 15t84.5 34l47 -170q-45 -23 -118.5 -41t-161.5 -18q-109 0 -203 31.5 t-163.5 95t-109.5 157.5t-40 219z" />
<glyph unicode="d" horiz-adv-x="1134" d="M74 485q0 115 29.5 208t87 160t140.5 102.5t187 35.5q72 0 136.5 -21.5t107.5 -60.5v549h242v-1458h-181l-26 106h-9q-47 -55 -114.5 -90.5t-173.5 -35.5q-86 0 -164 32.5t-136.5 97t-92 158.5t-33.5 217zM317 492q0 -86 19.5 -149.5t52.5 -103.5t77 -59.5t93 -19.5 q68 0 119 31.5t84 82.5v449q-35 41 -82 65.5t-105 24.5q-51 0 -97 -17.5t-82 -56.5t-57.5 -100t-21.5 -147z" />
<glyph unicode="e" horiz-adv-x="1052" d="M72 479q0 115 34.5 209t98 162t154 104.5t198.5 36.5q195 0 309.5 -118.5t114.5 -329.5v-111h-662v-8q0 -133 83 -198.5t219 -65.5q80 0 142 14t120 39l47 -170q-59 -27 -141 -45t-191 -18t-204 28.5t-166.5 90t-113.5 155.5t-42 225zM324 596l409 4q0 43 -10 83 t-32.5 70.5t-58.5 48t-85 17.5q-92 0 -151.5 -61.5t-71.5 -161.5z" />
<glyph unicode="f" horiz-adv-x="731" d="M35 797v176h145v157q0 162 90 248t244 86q70 0 137.5 -18.5t120.5 -46.5l-47 -160q-37 16 -73 26.5t-77 10.5q-80 0 -117.5 -47t-37.5 -158v-98h262v-176h-262v-797h-240v797h-145z" />
<glyph unicode="g" d="M57 -180q0 72 46.5 122t123.5 76q-33 23 -58.5 59t-25.5 93q0 66 40 114t106 76q-68 35 -120 103.5t-52 179.5q0 80 30.5 144.5t86 109.5t130 69.5t164.5 24.5q33 0 70 -5t70 -13h415v-160h-77l-140 21q29 -37 48.5 -87.5t19.5 -103.5q0 -78 -28.5 -141.5t-83 -108.5 t-129.5 -68.5t-167 -23.5q-57 0 -98 8q-61 -27 -61 -78q0 -69 105 -69h3h230q160 0 254 -71t94 -216q0 -80 -37 -145.5t-105.5 -112.5t-165 -72.5t-215.5 -25.5q-219 0 -346 76.5t-127 224.5zM281 -145q0 -72 60 -112t198 -40q74 0 126 13.5t85.5 36t49 51t15.5 59.5 q0 66 -45 90t-129 24h-276q-39 -16 -61.5 -46.5t-22.5 -75.5zM356 647q0 -90 48.5 -133t121.5 -43q76 0 122 43t46 129q0 92 -47 136t-121 44q-76 0 -123 -45t-47 -131z" />
<glyph unicode="h" horiz-adv-x="1146" d="M131 0v1458h242v-586q61 51 140 85t171 34q86 0 148.5 -25.5t103.5 -70.5t60.5 -106.5t19.5 -135.5v-653h-242v606q0 104 -42 150.5t-124 46.5q-59 0 -120.5 -29t-114.5 -80v-694h-242z" />
<glyph unicode="i" horiz-adv-x="544" d="M137 1325q0 53 37 91t98 38q59 0 96.5 -37t37.5 -92t-37.5 -92t-96.5 -37q-63 0 -99 37t-36 92zM152 0v973h241v-973h-241z" />
<glyph unicode="j" horiz-adv-x="538" d="M-86 -344q61 31 104 64.5t72 85t42 127t13 190.5v850h242v-834q0 -115 -16.5 -214t-58.5 -180t-112.5 -145.5t-181.5 -111.5zM133 1325q0 53 36 91t97 38q59 0 97 -37t38 -92t-37 -92t-98 -37t-97 37t-36 92z" />
<glyph unicode="k" horiz-adv-x="1038" d="M131 0v1458h240v-878l348 393h295l-383 -410l399 -563h-285l-288 422l-86 -86v-336h-240z" />
<glyph unicode="l" horiz-adv-x="509" d="M135 0v1458h238v-1458h-238z" />
<glyph unicode="m" horiz-adv-x="1728" d="M129 0v973h186l31 -129q68 68 145.5 107.5t180.5 39.5q102 0 171.5 -40t104.5 -113q70 72 154 112.5t184 40.5q154 0 233.5 -84t79.5 -239v-668h-241v635q0 78 -37 123t-113 45q-59 0 -118.5 -29t-106.5 -82q2 -14 2 -25.5v-25.5v-641h-242v635q0 78 -36.5 123t-112.5 45 q-59 0 -117.5 -32t-105.5 -87v-684h-242z" />
<glyph unicode="n" horiz-adv-x="1134" d="M129 0v973h188l31 -129q70 70 150 108.5t178 38.5q158 0 244 -87t86 -247v-657h-242v629q0 78 -40 126t-120 48q-59 0 -120.5 -32t-112.5 -85v-686h-242z" />
<glyph unicode="o" horiz-adv-x="1130" d="M74 473q0 123 38 220.5t105.5 163t157.5 100t194 34.5t193.5 -31.5t155 -95t102.5 -155.5t37 -215q0 -121 -38 -217.5t-105.5 -162t-157.5 -100t-195 -34.5q-104 0 -193 32.5t-155 95t-102.5 154.5t-36.5 211zM324 483q0 -86 20.5 -146.5t54 -100t77.5 -58t91 -18.5 q45 0 89 16.5t77 53t53.5 99t20.5 154.5q0 88 -20.5 150.5t-54.5 101.5t-78 57.5t-91 18.5t-90 -15.5t-75.5 -53t-53 -101t-20.5 -158.5z" />
<glyph unicode="p" horiz-adv-x="1126" d="M125 -471v1450h186l29 -115q57 55 131 91t168 36q193 0 304.5 -128t111.5 -357q0 -131 -40 -229.5t-106.5 -165t-155 -99t-184.5 -32.5q-59 0 -113.5 14t-90.5 39v-504h-240zM365 215q35 -29 79.5 -42t94.5 -13q49 0 96 18.5t85 58t61.5 104.5t23.5 159q0 135 -56 220 t-171 85q-74 0 -129.5 -36t-83.5 -71v-483z" />
<glyph unicode="q" horiz-adv-x="1134" d="M74 485q0 109 29.5 202t88 160.5t141.5 105.5t191 38q70 0 145.5 -27.5t125.5 -80.5l18 90h191v-1444h-242v526q-47 -39 -109.5 -57t-134.5 -18q-104 0 -187 36.5t-140.5 102t-87 159t-29.5 207.5zM317 492q0 -166 71 -249t177 -83q66 0 115 24.5t82 61.5v465 q-29 41 -79 71.5t-116 30.5q-51 0 -96 -18.5t-79 -56.5t-54.5 -99t-20.5 -147z" />
<glyph unicode="r" horiz-adv-x="786" d="M127 0v973h186l31 -182q35 84 110.5 142t188.5 58q49 0 86 -10t62 -23l-41 -196q-23 12 -55.5 21.5t-80.5 9.5q-104 0 -175.5 -72t-71.5 -227v-494h-240z" />
<glyph unicode="s" horiz-adv-x="870" d="M74 45l53 180q59 -29 125.5 -47t138.5 -18q170 0 170 108q0 49 -40 74t-136 53l-63 21q-127 41 -187.5 107.5t-60.5 174.5q0 63 26.5 117.5t74.5 93.5t116.5 60.5t152.5 21.5t163 -15t147 -46l-52 -174q-121 57 -235 57q-76 0 -116 -26.5t-40 -73.5q0 -39 33 -67t131 -56 l62 -19q131 -39 197.5 -106.5t66.5 -177.5q0 -141 -106.5 -224t-291.5 -83q-199 0 -329 65z" />
<glyph unicode="t" horiz-adv-x="770" d="M31 797v176h147v303h240v-303h268v-176h-268v-488q0 -70 33.5 -95.5t87.5 -25.5q41 0 86 8.5t75 22.5l37 -172q-39 -16 -105.5 -31.5t-142.5 -15.5q-166 0 -238.5 67.5t-72.5 202.5v527h-147z" />
<glyph unicode="u" horiz-adv-x="1134" d="M129 324v649h242v-625q0 -100 46 -142t118 -42q76 0 132 31.5t97 78.5v699h242v-973h-183l-28 113h-9q-47 -49 -124.5 -91t-194.5 -42q-154 0 -246 86t-92 258z" />
<glyph unicode="v" horiz-adv-x="1007" d="M23 973h258l168 -547l53 -246h8l51 246l168 547h258l-352 -973h-268z" />
<glyph unicode="w" horiz-adv-x="1521" d="M20 973h254l138 -549l37 -242h8l43 242l137 549h256l137 -549l43 -242h8l43 242l136 549h245l-278 -973h-281l-139 549l-43 235l-47 -235l-139 -549h-277z" />
<glyph unicode="x" horiz-adv-x="1005" d="M20 0l338 496l-319 477h270l117 -182l84 -154l82 154l108 182h265l-320 -477l344 -496h-276l-125 182l-92 160l-84 -158l-119 -184h-273z" />
<glyph unicode="y" horiz-adv-x="1024" d="M16 973h263l182 -496l67 -233h7l65 235l164 494h248l-363 -1024q-59 -170 -159.5 -293t-274.5 -182l-102 190q109 41 185.5 115t111.5 188l10 35z" />
<glyph unicode="z" horiz-adv-x="851" d="M45 0v152l475 645h-444v176h721v-146l-473 -651h483v-176h-762z" />
<glyph unicode="{" horiz-adv-x="665" d="M59 494v145q92 10 136.5 53t44.5 137v308q0 66 24.5 122t72.5 97t118.5 64.5t162.5 23.5v-156q-104 0 -146 -55t-42 -186v-242q0 -94 -36 -150.5t-103 -83.5v-6q66 -35 102.5 -106.5t36.5 -182.5v-239q0 -102 43 -143t145 -50v-161q-170 4 -274 91t-104 240v283 q0 92 -43 142t-138 55z" />
<glyph unicode="|" horiz-adv-x="479" d="M147 -471v2007h185v-2007h-185z" />
<glyph unicode="}" horiz-adv-x="665" d="M47 -160q104 4 146.5 52.5t42.5 164.5v242q0 102 36.5 165.5t102.5 94.5v6q-139 63 -139 262v240q0 117 -42 164t-147 53v164q88 0 158.5 -24.5t120 -67.5t75 -102.5t25.5 -129.5v-295q0 -180 180 -194v-146q-92 -8 -136 -54t-44 -138v-295q0 -141 -101.5 -229 t-277.5 -90v157z" />
<glyph unicode="~" horiz-adv-x="1187" d="M92 420q0 80 22.5 139t61.5 100t92.5 61.5t116.5 20.5t119.5 -23.5t108 -52t99.5 -52t95 -23.5q127 0 127 149h162q0 -84 -21.5 -144t-58.5 -99t-86 -58.5t-107 -19.5q-63 0 -121.5 24.5t-112.5 53t-105.5 53t-100.5 24.5q-63 0 -96 -45t-33 -108h-162z" />
<glyph unicode="&#xa1;" horiz-adv-x="524" d="M119 838q0 68 42 108.5t101 40.5t102.5 -41t43.5 -108q0 -61 -43 -103.5t-103 -42.5q-59 0 -101 42.5t-42 103.5zM135 -487l31 1005h192l31 -1005h-254z" />
<glyph unicode="&#xa2;" horiz-adv-x="1011" d="M106 629q0 102 30 187t85 149.5t132 104.5t173 54v187h195v-187q43 -6 88 -19t92 -36l-51 -168q-41 23 -95.5 37t-109.5 14q-135 0 -214 -79.5t-79 -237.5q0 -92 27 -154.5t70 -100.5t97 -54.5t109 -16.5q66 0 115 14.5t86 34.5l47 -168q-63 -37 -182 -55v-180h-195v180 q-92 12 -168.5 50t-132 99.5t-87.5 147.5t-32 197z" />
<glyph unicode="&#xa3;" horiz-adv-x="1062" d="M106 154q119 59 171.5 156.5t23.5 232.5h-182v170h160q-8 43 -15.5 95t-7.5 105q0 90 31.5 164t89 126t136.5 80t175 28q78 0 149.5 -17.5t106.5 -40.5l-51 -174q-39 18 -87 31.5t-108 13.5q-104 0 -158.5 -65.5t-54.5 -157.5q0 -59 6.5 -101t16.5 -87h317v-170h-297 q12 -113 -9 -198t-97 -144l2 -8h543v-193h-809z" />
<glyph unicode="&#xa4;" horiz-adv-x="1062" d="M66 238l170 168q-59 90 -60 221q0 127 57 217l-165 166l110 110l164 -170q41 27 90 40.5t103 13.5q106 0 186 -56l166 172l110 -110l-172 -168q29 -45 44.5 -100.5t15.5 -114.5q0 -68 -15.5 -125.5t-44.5 -100.5l172 -165l-110 -109l-170 170q-80 -51 -189 -51 q-51 0 -100 14t-86 39l-166 -172zM354 627q0 -115 46 -177.5t130 -62.5q74 0 126.5 55.5t52.5 184.5q0 111 -45.5 173t-131.5 62q-84 0 -131 -59.5t-47 -175.5z" />
<glyph unicode="&#xa5;" d="M23 1290h268l284 -557l289 557h260l-288 -491h223v-148h-303l-66 -112v-68h369v-147h-369v-324h-246v324h-368v147h368v68l-65 112h-303v148h227z" />
<glyph unicode="&#xa6;" horiz-adv-x="512" d="M164 -369v754h184v-754h-184zM164 778v758h184v-758h-184z" />
<glyph unicode="&#xa7;" horiz-adv-x="1058" d="M96 616q0 84 39 147.5t92 104.5q-49 61 -49 152q0 63 26.5 118.5t77 95.5t123 62.5t164.5 22.5t173 -16.5t147 -49.5l-51 -170q-66 35 -126.5 49.5t-119.5 14.5q-88 0 -134 -32t-46 -85q0 -27 9 -45t31.5 -34.5t59.5 -33t92 -34.5l98 -35q123 -43 191 -112.5t68 -178.5 q0 -86 -40 -148.5t-92 -99.5q39 -61 39 -143q0 -68 -27.5 -126t-77.5 -99t-122 -64.5t-160 -23.5q-117 0 -209 19t-166 54l54 174q137 -72 293 -71q96 0 139 35.5t43 89.5q0 53 -41 79.5t-141 61.5l-99 35q-125 45 -191.5 113.5t-66.5 172.5zM309 657q0 -59 42 -92t120 -61 l117 -39q29 -10 56.5 -21.5t51.5 -23.5q23 20 37.5 45.5t14.5 58.5q0 59 -38 91t-128 65l-115 43q-29 10 -56.5 20.5t-50.5 24.5q-23 -20 -37 -48t-14 -63z" />
<glyph unicode="&#xa8;" horiz-adv-x="759" d="M66 1272q0 47 35.5 85t86.5 38t86 -38t35 -85q0 -51 -34.5 -88t-86.5 -37q-51 0 -86.5 37t-35.5 88zM449 1272q0 47 36.5 85t85.5 38q53 0 88 -38t35 -85q0 -51 -34.5 -88t-88.5 -37q-49 0 -85.5 37t-36.5 88z" />
<glyph unicode="&#xa9;" horiz-adv-x="1443" d="M74 643q0 160 53 284t142 207t208 126t248 43q131 0 248 -42t205 -125t140 -206t52 -287q0 -160 -53 -283.5t-142.5 -207.5t-207 -127t-248.5 -43q-129 0 -247 42t-206 124.5t-140 206.5t-52 288zM174 643q0 -145 43 -253.5t118 -180.5t174 -107.5t210 -35.5 q113 0 212 36.5t175 110.5t120 181.5t44 248.5q0 143 -43 252t-117 180.5t-173 107.5t-212 36q-111 0 -211 -37t-176 -110t-120 -180.5t-44 -248.5zM397 637q0 82 27 149.5t75 113.5t115.5 71.5t147.5 25.5q49 0 96 -8t100 -31l-32 -112q-76 39 -150 39q-104 0 -165.5 -63.5 t-61.5 -180.5q0 -72 19.5 -120t51 -77.5t72.5 -42t82 -12.5q45 0 82 9.5t76 29.5l31 -111q-88 -41 -199 -41q-76 0 -142.5 23t-116.5 68t-79 112.5t-29 157.5z" />
<glyph unicode="&#xaa;" horiz-adv-x="708" d="M63 737q0 109 85 158t214 49h95v45q0 53 -31 74.5t-84 21.5q-37 0 -79 -11t-95 -40l-55 107q59 33 119.5 50t132.5 17q113 0 181 -53t68 -180v-414h-122l-17 66h-4q-68 -80 -192 -80q-102 0 -159 53t-57 137zM225 745q0 -49 30 -66t69 -17t74.5 19t58.5 52v113l-72 -4 q-88 -2 -124 -29t-36 -68z" />
<glyph unicode="&#xab;" horiz-adv-x="1026" d="M74 483l282 330h197l-258 -330l258 -327h-197zM483 483l283 330h197l-258 -330l258 -327h-197z" />
<glyph unicode="&#xac;" horiz-adv-x="1492" />
<glyph unicode="&#xad;" horiz-adv-x="573" d="M61 500v192h451v-192h-451z" />
<glyph unicode="&#xae;" horiz-adv-x="1085" d="M78 938q0 115 33.5 203t95 147.5t146.5 89t188 29.5q100 0 186 -29.5t148.5 -87t97.5 -141.5t35 -195q0 -117 -34 -204.5t-95.5 -148t-146.5 -91.5t-187 -31t-188.5 30t-148 88t-96 144t-34.5 197zM158 946q0 -102 28.5 -178t79.5 -125t122 -73.5t157 -24.5 q78 0 146.5 23.5t120.5 72.5t83 125t31 180q0 100 -31 174t-84 123t-123 72.5t-147 23.5q-78 0 -147.5 -21.5t-122 -69.5t-83 -122.5t-30.5 -179.5zM367 684v520h206q86 0 130.5 -45t44.5 -112q0 -59 -32 -96.5t-71 -53.5q35 -53 69 -107.5t66 -105.5h-112l-117 195h-92 v-195h-92zM459 954h80q47 0 79.5 20.5t32.5 69.5q0 47 -26.5 64.5t-73.5 17.5h-92v-172z" />
<glyph unicode="&#xaf;" horiz-adv-x="604" d="M51 1210v144h502v-144h-502z" />
<glyph unicode="&#xb0;" horiz-adv-x="813" d="M68 956q0 80 24.5 145.5t69.5 112t108.5 72t141.5 25.5q76 0 137 -25.5t106 -72t70 -112t25 -145.5q0 -164 -90.5 -259t-253.5 -95q-154 0 -246 95.5t-92 258.5zM225 956q0 -104 44 -165.5t137 -61.5q82 0 134 54t52 173q0 100 -42 164t-138 64q-94 0 -140.5 -59.5 t-46.5 -168.5z" />
<glyph unicode="&#xb1;" horiz-adv-x="991" d="M76 618v156h338v332h161v-332h338v-156h-338v-329h-161v329h-338zM123 0v156h715v-156h-715z" />
<glyph unicode="&#xb2;" horiz-adv-x="665" d="M31 1034l166 140q121 104 172 173.5t51 141.5q0 57 -38 93t-95 36q-41 0 -84 -12.5t-97 -46.5l-67 120q61 41 126.5 59.5t133.5 18.5q147 0 226 -74.5t79 -187.5q0 -84 -51 -170t-168 -176l-129 -98h348v-140h-541z" />
<glyph unicode="&#xb3;" horiz-adv-x="620" d="M18 938l37 131q51 -16 91 -22.5t90 -6.5q66 0 108.5 31t42.5 88q0 43 -37 74t-121 31h-114v131h82q82 0 123.5 32.5t41.5 88.5q0 57 -41.5 81.5t-89.5 24.5q-35 0 -72.5 -7t-76.5 -26l-41 121q66 29 120 38t107 9q57 0 107.5 -16.5t89.5 -46t61.5 -70.5t22.5 -92 q0 -145 -162 -193v-4q86 -16 138.5 -66t52.5 -126q0 -61 -28 -106.5t-73 -76t-103.5 -45t-121.5 -14.5q-59 0 -125 9.5t-109 27.5z" />
<glyph unicode="&#xb4;" horiz-adv-x="518" d="M63 1126l154 328h236l-222 -328h-168z" />
<glyph unicode="&#xb5;" horiz-adv-x="1132" d="M129 -332v1305h242v-625q0 -100 46 -142t118 -42q76 0 132 31.5t97 78.5v699h242v-973h-183l-28 113h-9q-45 -49 -116.5 -91t-186.5 -42q-37 0 -71.5 6t-65.5 22l25 -158v-182h-242z" />
<glyph unicode="&#xb6;" horiz-adv-x="1191" d="M72 901q0 102 34.5 179t97 128.5t149.5 77t192 25.5h504v-1678h-166v1510h-187v-1510h-168v867q-229 0 -342.5 107.5t-113.5 293.5z" />
<glyph unicode="&#xb7;" horiz-adv-x="434" d="M80 674q0 63 44 108t105 45t104.5 -45t43.5 -108q0 -68 -43 -111t-105 -43q-61 0 -105 43t-44 111z" />
<glyph unicode="&#xb8;" horiz-adv-x="585" d="M115 -383l30 104q51 -18 107 -18q47 0 73.5 14.5t26.5 49.5t-36.5 54t-129.5 19l72 160h135l-49 -96q78 -6 123 -45t45 -99q0 -43 -18.5 -74.5t-51 -53t-74.5 -32t-92 -10.5q-47 0 -90 8.5t-71 18.5z" />
<glyph unicode="&#xb9;" horiz-adv-x="589" d="M45 1626l254 117h156v-832h-193v639l-174 -82z" />
<glyph unicode="&#xba;" horiz-adv-x="872" />
<glyph unicode="&#xbb;" horiz-adv-x="1026" d="M70 156l258 327l-258 330h196l283 -330l-283 -327h-196zM479 156l258 327l-258 330h197l282 -330l-282 -327h-197z" />
<glyph unicode="&#xbc;" horiz-adv-x="1691" d="M63 1174l254 116h156v-831h-192v639l-175 -82zM334 -20l837 1331h154l-838 -1331h-153zM928 209v110l372 512h207v-493h129v-129h-129v-209h-178v209h-401zM1108 338h221v213l6 115h-4l-65 -113z" />
<glyph unicode="&#xbd;" horiz-adv-x="1759" d="M63 1174l254 116h156v-831h-192v639l-175 -82zM324 -20l837 1331h154l-838 -1331h-153zM1114 123l166 139q121 104 172 174t51 142q0 57 -38 93t-95 36q-41 0 -84 -12.5t-96 -47.5l-68 121q61 41 127 59.5t133 18.5q147 0 226.5 -75t79.5 -187q0 -84 -51.5 -170 t-168.5 -176l-129 -99h349v-139h-541z" />
<glyph unicode="&#xbe;" horiz-adv-x="1746" d="M59 483l37 131q51 -16 91 -22t89 -6q66 0 109 30.5t43 88.5q0 43 -37 73.5t-121 30.5h-114v131h82q82 0 123.5 33t41.5 88q0 57 -42 81.5t-89 24.5q-35 0 -72.5 -7t-76.5 -25l-41 120q66 29 120 38.5t107 9.5q57 0 107.5 -16.5t89.5 -46.5t61.5 -71t22.5 -92 q0 -145 -162 -192v-4q86 -16 138 -66.5t52 -126.5q0 -61 -27.5 -106t-72.5 -76t-103.5 -45.5t-121.5 -14.5q-59 0 -125 9.5t-109 27.5zM391 -20l840 1331h153l-839 -1331h-154zM971 209v110l372 512h207v-493h129v-129h-129v-209h-178v209h-401zM1151 338h221v213l6 115h-4 l-65 -113z" />
<glyph unicode="&#xbf;" horiz-adv-x="890" d="M102 -162q0 109 57.5 194t143.5 169q43 41 75 71.5t52.5 57t30.5 52.5t10 56q0 41 -14 84l198 29q10 -25 16.5 -57.5t6.5 -67.5q0 -88 -42 -152.5t-120 -144.5q-39 -41 -69.5 -73.5t-52 -65.5t-34 -67t-12.5 -75q0 -63 43 -111t139 -48q49 0 95.5 14t95.5 49l92 -168 q-61 -45 -143 -68.5t-168 -23.5q-94 0 -169 26.5t-126 73t-78 109.5t-27 137zM393 827q0 68 42 109t102 41q59 0 102 -41t43 -109q0 -61 -43 -103t-102 -42t-101.5 42t-42.5 103z" />
<glyph unicode="&#xc0;" horiz-adv-x="1265" d="M14 0l496 1290h250l489 -1290h-264l-115 317h-481l-115 -317h-260zM307 1688h266l164 -254h-198zM449 504h358l-68 190q-29 86 -54.5 162t-51.5 166h-4q-29 -84 -55.5 -163t-57.5 -165z" />
<glyph unicode="&#xc1;" horiz-adv-x="1265" d="M14 0l496 1290h250l489 -1290h-264l-115 317h-481l-115 -317h-260zM449 504h358l-68 190q-29 86 -54.5 162t-51.5 166h-4q-29 -84 -55.5 -163t-57.5 -165zM528 1434l164 254h269l-234 -254h-199z" />
<glyph unicode="&#xc2;" horiz-adv-x="1265" d="M14 0l496 1290h250l489 -1290h-264l-115 317h-481l-115 -317h-260zM299 1434l240 264h182l246 -264h-195l-143 151l-144 -151h-186zM449 504h358l-68 190q-29 86 -54.5 162t-51.5 166h-4q-29 -84 -55.5 -163t-57.5 -165z" />
<glyph unicode="&#xc3;" horiz-adv-x="1265" d="M14 0l496 1290h250l489 -1290h-264l-115 317h-481l-115 -317h-260zM315 1434q0 98 46.5 166.5t138.5 68.5q39 0 70.5 -12t60 -26.5t55.5 -27t57 -12.5q35 0 51.5 24.5t18.5 59.5h123q0 -98 -45 -165.5t-129 -67.5q-41 0 -78 12t-67.5 25.5t-57.5 26t-49 12.5 q-39 0 -53.5 -25t-18.5 -59h-123zM449 504h358l-68 190q-29 86 -54.5 162t-51.5 166h-4q-29 -84 -55.5 -163t-57.5 -165z" />
<glyph unicode="&#xc4;" horiz-adv-x="1265" d="M14 0l496 1290h250l489 -1290h-264l-115 317h-481l-115 -317h-260zM319 1544q0 47 36 83t85 36q51 0 86 -36t35 -83q0 -51 -34.5 -87t-86.5 -36q-49 0 -85 36t-36 87zM449 504h358l-68 190q-29 86 -54.5 162t-51.5 166h-4q-29 -84 -55.5 -163t-57.5 -165zM700 1544 q0 47 35 83t86 36q49 0 84 -36t35 -83q0 -51 -35 -87t-84 -36q-51 0 -86 36t-35 87z" />
<glyph unicode="&#xc5;" horiz-adv-x="1265" d="M14 0l496 1290h250l489 -1290h-264l-115 317h-481l-115 -317h-260zM422 1559q0 92 59.5 136t149.5 44q92 0 150.5 -44t58.5 -136q0 -47 -17.5 -81t-46 -55.5t-66.5 -33t-79 -11.5q-86 0 -147.5 46.5t-61.5 134.5zM449 504h358l-68 190q-29 86 -54.5 162t-51.5 166h-4 q-29 -84 -55.5 -163t-57.5 -165zM543 1559q0 -45 23.5 -71t64.5 -26t64.5 25.5t23.5 71.5q0 45 -23.5 70.5t-64.5 25.5t-64.5 -25.5t-23.5 -70.5z" />
<glyph unicode="&#xc6;" horiz-adv-x="1675" d="M18 0l654 1290h917v-196h-518v-326h465v-195h-465v-376h524v-197h-770v322h-366l-156 -322h-285zM541 512h284v596z" />
<glyph unicode="&#xc7;" horiz-adv-x="1159" d="M84 645q0 154 47 278t134 210t208 132t268 46q131 0 215 -22.5t144 -53.5l-58 -188q-61 31 -124.5 49t-147.5 18q-86 0 -163 -25.5t-133 -82t-90 -145.5t-34 -216q0 -123 33 -212t88 -146.5t130 -84t161 -26.5q96 0 161.5 16.5t118.5 45.5l54 -189q-55 -29 -138.5 -48 t-201.5 -21l-29 -76q92 -6 135 -53.5t43 -106.5q0 -90 -70.5 -137t-175.5 -47q-49 0 -92 9t-69 19l30 103q51 -18 107 -19q111 0 110 78q0 18 -7 34.5t-26.5 29t-53 19.5t-89.5 7l60 146q-119 16 -219.5 67t-172 136t-112.5 200t-41 256z" />
<glyph unicode="&#xc8;" horiz-adv-x="1054" d="M150 0v1290h819v-196h-570v-326h516v-195h-516v-376h576v-197h-825zM338 1688h266l164 -254h-199z" />
<glyph unicode="&#xc9;" horiz-adv-x="1048" d="M150 0v1290h819v-196h-570v-326h516v-195h-516v-376h576v-197h-825zM371 1434l164 254h266l-232 -254h-198z" />
<glyph unicode="&#xca;" horiz-adv-x="1048" d="M150 0v1290h819v-196h-570v-326h516v-195h-516v-376h576v-197h-825zM213 1434l240 264h182l246 -264h-195l-143 151l-144 -151h-186z" />
<glyph unicode="&#xcb;" horiz-adv-x="1048" d="M150 0v1290h819v-196h-570v-326h516v-195h-516v-376h576v-197h-825zM248 1544q0 47 35.5 83t85.5 36q51 0 85.5 -36t34.5 -83q0 -51 -34.5 -87t-85.5 -36q-49 0 -85 36t-36 87zM629 1544q0 47 34.5 83t86.5 36q49 0 83.5 -36t34.5 -83q0 -51 -34.5 -87t-83.5 -36 q-51 0 -86 36t-35 87z" />
<glyph unicode="&#xcc;" horiz-adv-x="548" d="M-63 1688h268l164 -254h-199zM150 0v1290h249v-1290h-249z" />
<glyph unicode="&#xcd;" horiz-adv-x="548" d="M150 0v1290h249v-1290h-249zM178 1434l164 254h268l-233 -254h-199z" />
<glyph unicode="&#xce;" horiz-adv-x="548" d="M-55 1434l239 264h183l245 -264h-194l-144 151l-143 -151h-186zM150 0v1290h249v-1290h-249z" />
<glyph unicode="&#xcf;" horiz-adv-x="548" d="M-39 1544q0 47 35 83t86 36q49 0 84 -36t35 -83q0 -51 -35 -87t-84 -36q-51 0 -86 36t-35 87zM150 0v1290h249v-1290h-249zM340 1544q0 47 36 83t85 36q51 0 86 -36t35 -83q0 -51 -35 -87t-86 -36q-49 0 -85 36t-36 87z" />
<glyph unicode="&#xd0;" horiz-adv-x="1402" d="M51 580v168h170v542h441q145 0 266 -39t208 -116.5t135 -193.5t48 -269q0 -178 -57.5 -306t-155.5 -209t-228 -119t-278 -38h-379v580h-170zM471 197h111q90 0 175 21.5t150.5 74.5t105.5 145t40 234q0 205 -116 313.5t-312 108.5h-154v-346h246v-168h-246v-383z" />
<glyph unicode="&#xd1;" horiz-adv-x="1384" d="M150 0v1290h368l352 -758l123 -317h8l-12 360v715h246v-1290h-369l-340 725l-135 358h-8l12 -401v-682h-245zM418 1434q0 98 45 166.5t137 68.5q39 0 72 -12t60.5 -26.5t54 -27t57.5 -12.5q35 0 51 24.5t20 59.5h123q0 -98 -45 -165.5t-131 -67.5q-41 0 -76.5 12 t-66.5 25.5t-58.5 26t-50.5 12.5q-37 0 -52 -25t-17 -59h-123z" />
<glyph unicode="&#xd2;" horiz-adv-x="1429" d="M86 643q0 158 48 282t133 210t201 131t251 45t249.5 -44t197.5 -129t130 -209t47 -286q0 -158 -48 -280.5t-133 -207.5t-200.5 -130t-250.5 -45t-250 43t-198 126.5t-130 207.5t-47 286zM352 643q0 -121 29 -209t79 -146.5t116.5 -87t142.5 -28.5t141.5 28.5t113.5 87 t75.5 146.5t27.5 209q0 123 -28.5 213t-78.5 148.5t-117 86t-142 27.5q-76 0 -141.5 -29.5t-113.5 -88t-76 -148.5t-28 -209zM479 1688h269l163 -254h-198z" />
<glyph unicode="&#xd3;" horiz-adv-x="1429" d="M86 643q0 158 48 282t133 210t201 131t251 45t249.5 -44t197.5 -129t130 -209t47 -286q0 -158 -48 -280.5t-133 -207.5t-200.5 -130t-250.5 -45t-250 43t-198 126.5t-130 207.5t-47 286zM352 643q0 -121 29 -209t79 -146.5t116.5 -87t142.5 -28.5t141.5 28.5t113.5 87 t75.5 146.5t27.5 209q0 123 -28.5 213t-78.5 148.5t-117 86t-142 27.5q-76 0 -141.5 -29.5t-113.5 -88t-76 -148.5t-28 -209zM508 1434l164 254h268l-233 -254h-199z" />
<glyph unicode="&#xd4;" horiz-adv-x="1429" d="M86 643q0 158 48 282t133 210t201 131t251 45t249.5 -44t197.5 -129t130 -209t47 -286q0 -158 -48 -280.5t-133 -207.5t-200.5 -130t-250.5 -45t-250 43t-198 126.5t-130 207.5t-47 286zM352 643q0 -121 29 -209t79 -146.5t116.5 -87t142.5 -28.5t141.5 28.5t113.5 87 t75.5 146.5t27.5 209q0 123 -28.5 213t-78.5 148.5t-117 86t-142 27.5q-76 0 -141.5 -29.5t-113.5 -88t-76 -148.5t-28 -209zM387 1434l240 264h182l246 -264h-195l-143 151l-144 -151h-186z" />
<glyph unicode="&#xd5;" horiz-adv-x="1429" d="M86 643q0 158 48 282t133 210t201 131t251 45t249.5 -44t197.5 -129t130 -209t47 -286q0 -158 -48 -280.5t-133 -207.5t-200.5 -130t-250.5 -45t-250 43t-198 126.5t-130 207.5t-47 286zM352 643q0 -121 29 -209t79 -146.5t116.5 -87t142.5 -28.5t141.5 28.5t113.5 87 t75.5 146.5t27.5 209q0 123 -28.5 213t-78.5 148.5t-117 86t-142 27.5q-76 0 -141.5 -29.5t-113.5 -88t-76 -148.5t-28 -209zM397 1434q0 98 45 167.5t138 69.5q39 0 71.5 -12t60 -27.5t54.5 -28t57 -12.5q35 0 51.5 25.5t20.5 60.5h123q0 -98 -45 -166.5t-131 -68.5 q-41 0 -77 12t-66.5 26.5t-58.5 27t-50 12.5q-37 0 -52.5 -26t-17.5 -60h-123z" />
<glyph unicode="&#xd6;" horiz-adv-x="1429" d="M86 643q0 158 48 282t133 210t201 131t251 45t249.5 -44t197.5 -129t130 -209t47 -286q0 -158 -48 -280.5t-133 -207.5t-200.5 -130t-250.5 -45t-250 43t-198 126.5t-130 207.5t-47 286zM352 643q0 -121 29 -209t79 -146.5t116.5 -87t142.5 -28.5t141.5 28.5t113.5 87 t75.5 146.5t27.5 209q0 123 -28.5 213t-78.5 148.5t-117 86t-142 27.5q-76 0 -141.5 -29.5t-113.5 -88t-76 -148.5t-28 -209zM406 1544q0 47 34.5 83t85.5 36q49 0 84 -36t35 -83q0 -51 -35 -87t-84 -36q-51 0 -85.5 36t-34.5 87zM784 1544q0 47 36 83t85 36q51 0 86 -36 t35 -83q0 -51 -35 -87t-86 -36q-49 0 -85 36t-36 87z" />
<glyph unicode="&#xd7;" horiz-adv-x="880" d="M80 362l252 252l-252 254l108 109l252 -252l252 250l109 -109l-252 -252l252 -249l-109 -109l-252 250l-252 -252z" />
<glyph unicode="&#xd8;" horiz-adv-x="1429" d="M86 643q0 158 48 282t133 210t201 131t251 45q55 0 110.5 -8.5t104.5 -24.5l113 262l112 -47l-112 -264q135 -78 215.5 -223.5t80.5 -362.5q0 -158 -48 -280.5t-133 -207.5t-200.5 -130t-250.5 -45q-51 0 -102.5 7t-94.5 17l-139 -328l-113 50l137 323 q-143 78 -228 224.5t-85 369.5zM352 643q0 -147 38 -244.5t102 -150.5l354 848q-63 23 -135 22q-76 0 -141.5 -29.5t-113.5 -88t-76 -148.5t-28 -209zM602 188q29 -10 57.5 -13t59.5 -3q76 0 141.5 28.5t113.5 87t75.5 146.5t27.5 209q0 141 -33.5 234.5t-93.5 148.5z" />
<glyph unicode="&#xd9;" horiz-adv-x="1339" d="M141 520v770h250v-772q0 -178 66.5 -261t214.5 -83q145 0 210.5 89t65.5 231v796h250v-780q0 -268 -135 -399t-391 -131q-125 0 -223.5 31.5t-167 98t-104.5 169t-36 241.5zM420 1688h268l164 -254h-199z" />
<glyph unicode="&#xda;" horiz-adv-x="1339" d="M141 520v770h250v-772q0 -178 66.5 -261t214.5 -83q145 0 210.5 89t65.5 231v796h250v-780q0 -268 -135 -399t-391 -131q-125 0 -223.5 31.5t-167 98t-104.5 169t-36 241.5zM477 1434l164 254h268l-233 -254h-199z" />
<glyph unicode="&#xdb;" horiz-adv-x="1339" d="M141 520v770h250v-772q0 -178 66.5 -261t214.5 -83q145 0 210.5 89t65.5 231v796h250v-780q0 -268 -135 -399t-391 -131q-125 0 -223.5 31.5t-167 98t-104.5 169t-36 241.5zM342 1434l240 264h182l246 -264h-195l-143 151l-144 -151h-186z" />
<glyph unicode="&#xdc;" horiz-adv-x="1339" d="M141 520v770h250v-772q0 -178 66.5 -261t214.5 -83q145 0 210.5 89t65.5 231v796h250v-780q0 -268 -135 -399t-391 -131q-125 0 -223.5 31.5t-167 98t-104.5 169t-36 241.5zM362 1544q0 47 35 83t86 36q49 0 84 -36t35 -83q0 -51 -35 -87t-84 -36q-51 0 -86 36t-35 87z M741 1544q0 47 36 83t85 36q51 0 86 -36t35 -83q0 -51 -35 -87t-86 -36q-49 0 -85 36t-36 87z" />
<glyph unicode="&#xdd;" d="M6 1290h279l290 -526l293 526h271l-447 -755v-535h-250v535zM438 1434l164 254h268l-233 -254h-199z" />
<glyph unicode="&#xde;" horiz-adv-x="1093" d="M141 0v1290h238v-260q86 25 180 25q98 0 182 -29t144.5 -81t95.5 -127t35 -167q0 -111 -38 -192.5t-105.5 -135t-159.5 -80t-199 -26.5q-29 0 -67.5 3t-67.5 7v-227h-238zM379 416q29 -10 58.5 -12.5t70.5 -2.5q119 0 190.5 61.5t71.5 176.5q0 117 -70.5 175t-175.5 58 q-41 0 -79.5 -6t-65.5 -16v-434z" />
<glyph unicode="&#xdf;" horiz-adv-x="1222" d="M143 0v973q0 111 28 203t87 158.5t152.5 103.5t224.5 37q82 0 156.5 -24t133 -68t93.5 -109.5t35 -147.5q0 -51 -12.5 -95t-28.5 -79q-104 -23 -147.5 -62.5t-43.5 -103.5q0 -59 36 -101t89 -81q86 -66 140.5 -136.5t54.5 -174.5q0 -137 -101.5 -225t-294.5 -88 q-31 0 -65.5 3t-68 9t-63.5 14t-50 21l51 170q86 -37 180 -37q84 0 127 40t43 99q0 57 -39 96t-108 92q-78 59 -124 124t-46 167q0 88 55 157t160 99q6 16 9 36t3 50q0 84 -53.5 127t-130.5 43q-55 0 -100.5 -17.5t-77 -58t-49 -107.5t-17.5 -163v-944h-238z" />
<glyph unicode="&#xe0;" horiz-adv-x="1024" d="M68 270q0 82 34.5 141.5t95 98.5t144.5 58.5t182 19.5h144v67q0 80 -47.5 114t-126.5 34q-57 0 -122 -18.5t-143 -63.5l-86 166q90 49 182.5 76.5t202.5 27.5q86 0 156 -19.5t121 -62.5t78.5 -111.5t27.5 -166.5v-631h-190l-25 102h-6q-104 -123 -297 -122 q-154 0 -239.5 80.5t-85.5 209.5zM281 1423h251l144 -295h-178zM317 283q0 -76 45.5 -102.5t104.5 -26.5t113.5 29.5t89.5 82.5v168l-111 -4q-135 -4 -188.5 -46t-53.5 -101z" />
<glyph unicode="&#xe1;" horiz-adv-x="1024" d="M68 270q0 82 34.5 141.5t95 98.5t144.5 58.5t182 19.5h144v67q0 80 -47.5 114t-126.5 34q-57 0 -122 -18.5t-143 -63.5l-86 166q90 49 182.5 76.5t202.5 27.5q86 0 156 -19.5t121 -62.5t78.5 -111.5t27.5 -166.5v-631h-190l-25 102h-6q-104 -123 -297 -122 q-154 0 -239.5 80.5t-85.5 209.5zM317 283q0 -76 45.5 -102.5t104.5 -26.5t113.5 29.5t89.5 82.5v168l-111 -4q-135 -4 -188.5 -46t-53.5 -101zM403 1128l144 295h252l-217 -295h-179z" />
<glyph unicode="&#xe2;" horiz-adv-x="1024" d="M68 270q0 82 34.5 141.5t95 98.5t144.5 58.5t182 19.5h144v67q0 80 -47.5 114t-126.5 34q-57 0 -122 -18.5t-143 -63.5l-86 166q90 49 182.5 76.5t202.5 27.5q86 0 156 -19.5t121 -62.5t78.5 -111.5t27.5 -166.5v-631h-190l-25 102h-6q-104 -123 -297 -122 q-154 0 -239.5 80.5t-85.5 209.5zM201 1128l250 285h151l246 -285h-186l-134 162l-133 -162h-194zM317 283q0 -76 45.5 -102.5t104.5 -26.5t113.5 29.5t89.5 82.5v168l-111 -4q-135 -4 -188.5 -46t-53.5 -101z" />
<glyph unicode="&#xe3;" horiz-adv-x="1024" d="M68 270q0 82 34.5 141.5t95 98.5t144.5 58.5t182 19.5h144v67q0 80 -47.5 114t-126.5 34q-57 0 -122 -18.5t-143 -63.5l-86 166q90 49 182.5 76.5t202.5 27.5q86 0 156 -19.5t121 -62.5t78.5 -111.5t27.5 -166.5v-631h-190l-25 102h-6q-104 -123 -297 -122 q-154 0 -239.5 80.5t-85.5 209.5zM186 1128q0 117 47.5 185.5t139.5 68.5q41 0 76.5 -14t66.5 -32.5t59.5 -33t55.5 -14.5q41 0 55 33t19 70h122q0 -115 -46 -183.5t-136 -68.5q-47 0 -85 14t-70.5 31.5t-59.5 32t-49 14.5q-39 0 -54.5 -28.5t-17.5 -74.5h-123zM317 283 q0 -76 45.5 -102.5t104.5 -26.5t113.5 29.5t89.5 82.5v168l-111 -4q-135 -4 -188.5 -46t-53.5 -101z" />
<glyph unicode="&#xe4;" horiz-adv-x="1024" d="M68 270q0 82 34.5 141.5t95 98.5t144.5 58.5t182 19.5h144v67q0 80 -47.5 114t-126.5 34q-57 0 -122 -18.5t-143 -63.5l-86 166q90 49 182.5 76.5t202.5 27.5q86 0 156 -19.5t121 -62.5t78.5 -111.5t27.5 -166.5v-631h-190l-25 102h-6q-104 -123 -297 -122 q-154 0 -239.5 80.5t-85.5 209.5zM217 1272q0 47 36 85t87 38t86 -38t35 -85q0 -51 -35 -88t-86 -37t-87 37t-36 88zM317 283q0 -76 45.5 -102.5t104.5 -26.5t113.5 29.5t89.5 82.5v168l-111 -4q-135 -4 -188.5 -46t-53.5 -101zM600 1272q0 47 37 85t86 38q53 0 88 -38 t35 -85q0 -51 -35 -88t-88 -37q-49 0 -86 37t-37 88z" />
<glyph unicode="&#xe5;" horiz-adv-x="1024" d="M68 270q0 82 34.5 141.5t95 98.5t144.5 58.5t182 19.5h144v67q0 80 -47.5 114t-126.5 34q-57 0 -122 -18.5t-143 -63.5l-86 166q90 49 182.5 76.5t202.5 27.5q86 0 156 -19.5t121 -62.5t78.5 -111.5t27.5 -166.5v-631h-190l-25 102h-6q-104 -123 -297 -122 q-154 0 -239.5 80.5t-85.5 209.5zM317 283q0 -76 45.5 -102.5t104.5 -26.5t113.5 29.5t89.5 82.5v168l-111 -4q-135 -4 -188.5 -46t-53.5 -101zM330 1276q0 45 17.5 79t46 56.5t65.5 33.5t76 11q41 0 78.5 -11t65.5 -33.5t44 -56.5t16 -79q0 -47 -17 -81t-46 -55.5 t-66 -32.5t-75 -11q-39 0 -76 12t-65.5 34.5t-46 56.5t-17.5 77zM442 1276q0 -47 26 -72.5t67 -25.5t66.5 25.5t25.5 72.5t-26 71.5t-66 24.5q-39 0 -66 -24.5t-27 -71.5z" />
<glyph unicode="&#xe6;" horiz-adv-x="1622" d="M68 270q0 82 34.5 141.5t95 98.5t144.5 58.5t182 19.5h156v67q0 80 -50 114t-136 34q-57 0 -122 -18.5t-143 -63.5l-86 166q90 49 180.5 76.5t198.5 27.5q102 0 177 -31.5t120 -101.5h4q53 68 133 100.5t174 32.5q197 0 308.5 -119.5t111.5 -332.5v-103h-651v-8 q0 -137 81 -202.5t216 -65.5q80 0 142.5 14t119.5 39l45 -170q-55 -27 -135 -45t-184 -18q-129 0 -233.5 38.5t-174.5 126.5h-6q-61 -78 -147 -121.5t-222 -43.5q-156 0 -244.5 80.5t-88.5 209.5zM317 283q0 -76 45.5 -102.5t104.5 -26.5q68 0 131.5 33.5t101.5 95.5 q-10 35 -17 71.5t-9 79.5l-115 -4q-135 -4 -188.5 -46t-53.5 -101zM903 588l400 4q0 43 -10.5 84t-32 72.5t-56.5 51t-84 19.5q-92 0 -149.5 -62.5t-67.5 -168.5z" />
<glyph unicode="&#xe7;" horiz-adv-x="937" d="M80 483q0 115 38 209t106.5 161t163.5 102.5t210 35.5q63 0 131 -12t145 -49l-51 -172q-47 27 -96 41t-102 14q-135 0 -217 -83t-82 -241q0 -92 26.5 -155.5t69.5 -102t97.5 -55t109.5 -16.5q66 0 116 15t84 34l48 -170q-43 -23 -114 -40t-157 -19l-37 -76q78 -6 123 -45 t45 -99q0 -43 -18.5 -74.5t-51 -53t-74.5 -32t-91 -10.5t-91 8.5t-71 18.5l31 104q51 -18 106 -18q47 0 74 14.5t27 49.5t-37 54t-129 19l67 150q-86 14 -159.5 53t-127 101.5t-83 146.5t-29.5 192z" />
<glyph unicode="&#xe8;" horiz-adv-x="1052" d="M72 479q0 115 34.5 209t98 162t154 104.5t198.5 36.5q195 0 309.5 -118.5t114.5 -329.5v-101h-662v-8q0 -137 83 -205.5t219 -68.5q80 0 142 14t120 39l47 -170q-59 -27 -141 -45t-191 -18t-204 28.5t-166.5 90t-113.5 155.5t-42 225zM324 596l409 4q0 43 -10 83 t-32.5 70.5t-58.5 48t-85 17.5q-92 0 -151.5 -61.5t-71.5 -161.5zM330 1423h252l143 -295h-178z" />
<glyph unicode="&#xe9;" horiz-adv-x="1052" d="M72 479q0 115 34.5 209t98 162t154 104.5t198.5 36.5q195 0 309.5 -118.5t114.5 -329.5v-101h-662v-8q0 -137 83 -205.5t219 -68.5q80 0 142 14t120 39l47 -170q-59 -27 -141 -45t-191 -18t-204 28.5t-166.5 90t-113.5 155.5t-42 225zM324 596l409 4q0 43 -10 83 t-32.5 70.5t-58.5 48t-85 17.5q-92 0 -151.5 -61.5t-71.5 -161.5zM395 1128l144 295h252l-218 -295h-178z" />
<glyph unicode="&#xea;" horiz-adv-x="1052" d="M72 479q0 115 34.5 209t98 162t154 104.5t198.5 36.5q195 0 309.5 -118.5t114.5 -329.5v-101h-662v-8q0 -137 83 -205.5t219 -68.5q80 0 142 14t120 39l47 -170q-59 -27 -141 -45t-191 -18t-204 28.5t-166.5 90t-113.5 155.5t-42 225zM223 1128l250 285h152l245 -285 h-186l-133 162l-133 -162h-195zM324 596l409 4q0 43 -10 83t-32.5 70.5t-58.5 48t-85 17.5q-92 0 -151.5 -61.5t-71.5 -161.5z" />
<glyph unicode="&#xeb;" horiz-adv-x="1052" d="M72 479q0 115 34.5 209t98 162t154 104.5t198.5 36.5q195 0 309.5 -118.5t114.5 -329.5v-101h-662v-8q0 -137 83 -205.5t219 -68.5q80 0 142 14t120 39l47 -170q-59 -27 -141 -45t-191 -18t-204 28.5t-166.5 90t-113.5 155.5t-42 225zM238 1272q0 47 35.5 85t86.5 38 t86 -38t35 -85q0 -51 -34.5 -88t-86.5 -37q-51 0 -86.5 37t-35.5 88zM324 596l409 4q0 43 -10 83t-32.5 70.5t-58.5 48t-85 17.5q-92 0 -151.5 -61.5t-71.5 -161.5zM621 1272q0 47 36.5 85t85.5 38q53 0 88 -38t35 -85q0 -51 -34.5 -88t-88.5 -37q-49 0 -85.5 37t-36.5 88z " />
<glyph unicode="&#xec;" horiz-adv-x="546" d="M-12 1423h252l143 -295h-178zM152 0v973h241v-973h-241z" />
<glyph unicode="&#xed;" horiz-adv-x="546" d="M152 0v973h241v-973h-241zM162 1128l143 295h252l-217 -295h-178z" />
<glyph unicode="&#xee;" horiz-adv-x="546" d="M-55 1128l252 285h151l244 -285h-186l-134 162l-133 -162h-194zM152 0v973h241v-973h-241z" />
<glyph unicode="&#xef;" horiz-adv-x="546" d="M-47 1272q0 47 37 85t86 38q53 0 88 -38t35 -85q0 -51 -35 -88t-88 -37q-49 0 -86 37t-37 88zM152 0v973h241v-973h-241zM338 1272q0 47 36 85t87 38t86 -38t35 -85q0 -51 -35 -88t-86 -37t-87 37t-36 88z" />
<glyph unicode="&#xf0;" horiz-adv-x="1124" d="M78 459q0 113 33.5 202t93 150t138.5 93t171 32q72 0 142.5 -27.5t117.5 -74.5l6 2q-14 49 -37.5 97t-54.5 92t-65.5 81t-67.5 63l-233 -114l-54 94l191 94q-47 29 -96.5 49.5t-108.5 36.5l90 158q82 -23 166 -62t154 -92l190 97l55 -97l-157 -80q55 -53 106 -125.5 t91 -164t63.5 -201t23.5 -238.5q0 -117 -30.5 -216t-91 -173t-150.5 -114.5t-209 -40.5q-84 0 -168 27.5t-153.5 86t-112.5 148.5t-43 217zM322 465q0 -86 21.5 -144.5t56 -94.5t77.5 -51t88 -15q51 0 94 23.5t75 64.5t49.5 97t17.5 122q0 70 -19.5 124t-53.5 91t-78 56.5 t-91 19.5q-43 0 -85 -14.5t-75.5 -49.5t-55 -91t-21.5 -138z" />
<glyph unicode="&#xf1;" horiz-adv-x="1132" d="M127 0v973h188l31 -129q70 70 149.5 108.5t178.5 38.5q158 0 244 -87t86 -247v-657h-242v629q0 78 -40 126t-120 48q-59 0 -120.5 -32t-112.5 -85v-686h-242zM242 1128q0 117 47 185.5t139 68.5q41 0 77 -14t66.5 -32.5t59 -33t55.5 -14.5q41 0 55.5 33t18.5 70h123 q0 -115 -46 -183.5t-137 -68.5q-47 0 -84.5 14t-70.5 31.5t-59.5 32t-49.5 14.5q-39 0 -54 -28.5t-17 -74.5h-123z" />
<glyph unicode="&#xf2;" d="M80 473q0 123 38 220.5t105.5 163t157.5 100t194 34.5t193.5 -31.5t155 -95t102.5 -155.5t37 -215q0 -121 -38 -217.5t-105.5 -162t-157.5 -100t-195 -34.5q-104 0 -193 32.5t-154.5 95t-102.5 154.5t-37 211zM307 1423h252l143 -295h-178zM330 483q0 -86 20.5 -146.5 t54 -100t77.5 -58t91 -18.5q45 0 89.5 16.5t77 53t53 99t20.5 154.5q0 88 -20.5 150.5t-54 101.5t-78 57.5t-91.5 18.5t-90 -15.5t-75.5 -53t-53 -101t-20.5 -158.5z" />
<glyph unicode="&#xf3;" d="M80 473q0 123 38 220.5t105.5 163t157.5 100t194 34.5t193.5 -31.5t155 -95t102.5 -155.5t37 -215q0 -121 -38 -217.5t-105.5 -162t-157.5 -100t-195 -34.5q-104 0 -193 32.5t-154.5 95t-102.5 154.5t-37 211zM330 483q0 -86 20.5 -146.5t54 -100t77.5 -58t91 -18.5 q45 0 89.5 16.5t77 53t53 99t20.5 154.5q0 88 -20.5 150.5t-54 101.5t-78 57.5t-91.5 18.5t-90 -15.5t-75.5 -53t-53 -101t-20.5 -158.5zM446 1128l144 295h252l-217 -295h-179z" />
<glyph unicode="&#xf4;" d="M80 473q0 123 38 220.5t105.5 163t157.5 100t194 34.5t193.5 -31.5t155 -95t102.5 -155.5t37 -215q0 -121 -38 -217.5t-105.5 -162t-157.5 -100t-195 -34.5q-104 0 -193 32.5t-154.5 95t-102.5 154.5t-37 211zM244 1128l252 285h151l244 -285h-186l-134 162l-133 -162 h-194zM330 483q0 -86 20.5 -146.5t54 -100t77.5 -58t91 -18.5q45 0 89.5 16.5t77 53t53 99t20.5 154.5q0 88 -20.5 150.5t-54 101.5t-78 57.5t-91.5 18.5t-90 -15.5t-75.5 -53t-53 -101t-20.5 -158.5z" />
<glyph unicode="&#xf5;" d="M80 473q0 123 38 220.5t105.5 163t157.5 100t194 34.5t193.5 -31.5t155 -95t102.5 -155.5t37 -215q0 -121 -38 -217.5t-105.5 -162t-157.5 -100t-195 -34.5q-104 0 -193 32.5t-154.5 95t-102.5 154.5t-37 211zM246 1128q0 117 47 185.5t139 68.5q41 0 77 -14t67.5 -32.5 t59.5 -33t56 -14.5q41 0 55.5 33t16.5 70h123q2 -115 -44 -183.5t-136 -68.5q-47 0 -85 14t-71 31.5t-59.5 32t-51.5 14.5q-37 0 -52 -28.5t-19 -74.5h-123zM330 483q0 -86 20.5 -146.5t54 -100t77.5 -58t91 -18.5q45 0 89.5 16.5t77 53t53 99t20.5 154.5q0 88 -20.5 150.5 t-54 101.5t-78 57.5t-91.5 18.5t-90 -15.5t-75.5 -53t-53 -101t-20.5 -158.5z" />
<glyph unicode="&#xf6;" d="M80 473q0 123 38 220.5t105.5 163t157.5 100t194 34.5t193.5 -31.5t155 -95t102.5 -155.5t37 -215q0 -121 -38 -217.5t-105.5 -162t-157.5 -100t-195 -34.5q-104 0 -193 32.5t-154.5 95t-102.5 154.5t-37 211zM252 1272q0 47 36 85t87 38t86 -38t35 -85q0 -51 -35 -88 t-86 -37t-87 37t-36 88zM330 483q0 -86 20.5 -146.5t54 -100t77.5 -58t91 -18.5q45 0 89.5 16.5t77 53t53 99t20.5 154.5q0 88 -20.5 150.5t-54 101.5t-78 57.5t-91.5 18.5t-90 -15.5t-75.5 -53t-53 -101t-20.5 -158.5zM635 1272q0 47 37 85t86 38q53 0 88 -38t35 -85 q0 -51 -35 -88t-88 -37q-49 0 -86 37t-37 88z" />
<glyph unicode="&#xf7;" horiz-adv-x="1112" d="M82 436v146h948v-146h-948zM414 170q0 53 41 95t98 42q55 0 96 -42t41 -95q0 -59 -41 -99t-96 -40q-57 0 -98 40t-41 99zM414 852q0 53 41 95t98 42q55 0 96 -42t41 -95q0 -59 -41 -99t-96 -40q-57 0 -98 40t-41 99z" />
<glyph unicode="&#xf8;" d="M80 469q-2 123 36 220t104.5 164t156.5 102.5t194 35.5q70 0 129 -14l62 184l108 -33l-65 -184q115 -53 185.5 -163.5t72.5 -282.5q0 -121 -37 -217.5t-103.5 -163t-156.5 -102t-195 -35.5q-68 0 -125 12l-57 -174l-104 35l59 170q-119 55 -190.5 165.5t-73.5 280.5z M330 481q0 -98 26.5 -162.5t67.5 -99.5l201 586q-14 2 -29 4t-29 2q-47 0 -89 -16.5t-75.5 -54.5t-53 -101.5t-19.5 -157.5zM520 164q14 -4 27.5 -4h27.5q45 0 88.5 16.5t77 54t53 100t19.5 154.5q0 98 -25.5 162t-66.5 101z" />
<glyph unicode="&#xf9;" horiz-adv-x="1134" d="M129 324v649h242v-625q0 -100 46 -142t118 -42q76 0 132 31.5t97 78.5v699h242v-973h-183l-28 113h-9q-47 -49 -124.5 -91t-194.5 -42q-154 0 -246 86t-92 258zM274 1423h252l144 -295h-178z" />
<glyph unicode="&#xfa;" horiz-adv-x="1134" d="M129 324v649h242v-625q0 -100 46 -142t118 -42q76 0 132 31.5t97 78.5v699h242v-973h-183l-28 113h-9q-47 -49 -124.5 -91t-194.5 -42q-154 0 -246 86t-92 258zM461 1128l143 295h252l-217 -295h-178z" />
<glyph unicode="&#xfb;" horiz-adv-x="1134" d="M129 324v649h242v-625q0 -100 46 -142t118 -42q76 0 132 31.5t97 78.5v699h242v-973h-183l-28 113h-9q-47 -49 -124.5 -91t-194.5 -42q-154 0 -246 86t-92 258zM244 1128l250 285h151l246 -285h-186l-134 162l-133 -162h-194z" />
<glyph unicode="&#xfc;" horiz-adv-x="1134" d="M129 324v649h242v-625q0 -100 46 -142t118 -42q76 0 132 31.5t97 78.5v699h242v-973h-183l-28 113h-9q-47 -49 -124.5 -91t-194.5 -42q-154 0 -246 86t-92 258zM248 1272q0 47 37 85t86 38q53 0 88 -38t35 -85q0 -51 -35 -88t-88 -37q-49 0 -86 37t-37 88zM633 1272 q0 47 36 85t87 38t86 -38t35 -85q0 -51 -35 -88t-86 -37t-87 37t-36 88z" />
<glyph unicode="&#xfd;" horiz-adv-x="1024" d="M16 973h263l182 -496l67 -233h7l65 235l164 494h248l-363 -1024q-59 -170 -159.5 -293t-274.5 -182l-102 190q109 41 185.5 115t111.5 188l10 35zM401 1128l144 295h252l-217 -295h-179z" />
<glyph unicode="&#xfe;" horiz-adv-x="1148" d="M131 -342v1800h240v-577q117 111 280 110q195 0 307.5 -134t112.5 -374q0 -117 -35 -210t-96 -158.5t-144 -100t-178 -34.5q-78 0 -138 16t-109 53v-391h-240zM373 240q33 -37 78 -58.5t102 -21.5q51 0 100 18.5t86 58t59.5 99t22.5 143.5q0 154 -63.5 239t-175.5 85 q-63 0 -116.5 -29t-92.5 -74v-460z" />
<glyph unicode="&#xff;" horiz-adv-x="1024" d="M16 973h263l182 -496l67 -233h7l65 235l164 494h248l-363 -1024q-59 -170 -159.5 -293t-274.5 -182l-102 190q109 41 185.5 115t111.5 188l10 35zM207 1272q0 47 36 85t87 38t86 -38t35 -85q0 -51 -35 -88t-86 -37t-87 37t-36 88zM590 1272q0 47 37 85t86 38q53 0 88 -38 t35 -85q0 -51 -35 -88t-88 -37q-49 0 -86 37t-37 88z" />
<glyph unicode="&#x152;" horiz-adv-x="1773" d="M86 645q0 158 46 282t129 209t197.5 130t250.5 45q51 0 103 -5.5t97 -15.5h779v-196h-560v-326h506v-195h-506v-376h566v-197h-793q-47 -10 -98 -15t-98 -5q-135 0 -249 41.5t-196 125.5t-128 208t-46 290zM352 647q0 -121 27 -210t75 -147.5t113.5 -88t145.5 -29.5 q43 0 86 8t80 29v874q-39 18 -81 26.5t-87 8.5q-80 0 -145.5 -28.5t-112.5 -87t-74 -147.5t-27 -208z" />
<glyph unicode="&#x153;" horiz-adv-x="1734" d="M80 473q0 123 37 220.5t101.5 163t153.5 100t193 34.5q233 0 357 -176q57 86 142 131t202 45q195 0 307.5 -118.5t112.5 -329.5v-111h-654v-8q0 -133 82 -198.5t217 -65.5q80 0 139.5 14t116.5 39l47 -170q-59 -27 -139 -45t-186 -18q-127 0 -230.5 44t-163.5 134 q-123 -178 -356 -178q-104 0 -192 32.5t-151.5 95t-99.5 154.5t-36 211zM330 483q0 -86 19.5 -146.5t52 -100t75.5 -58t90 -18.5q45 0 88 16.5t75 53t51.5 99t19.5 154.5q0 88 -19.5 150.5t-52.5 101.5t-76 57.5t-90 18.5t-89 -15.5t-73.5 -53t-51 -101t-19.5 -158.5z M1038 596l400 4q0 43 -10.5 83t-32 70.5t-56 48t-84.5 17.5q-92 0 -148 -61.5t-69 -161.5z" />
<glyph unicode="&#x178;" horiz-adv-x="1159" d="M18 1290h279l291 -526l293 526h270l-446 -755v-535h-250v535zM279 1544q0 47 35.5 83t84.5 36q51 0 86 -36t35 -83q0 -51 -34.5 -87t-86.5 -36q-49 0 -84.5 36t-35.5 87zM659 1544q0 47 35 83t86 36q49 0 84 -36t35 -83q0 -51 -35 -87t-84 -36q-51 0 -86 36t-35 87z" />
<glyph unicode="&#x2c6;" horiz-adv-x="747" d="M47 1126l262 318h142l254 -318h-187l-137 197l-141 -197h-193z" />
<glyph unicode="&#x2dc;" horiz-adv-x="821" d="M76 1169q0 117 43 185.5t135 68.5q41 0 77 -15t67.5 -32.5t60 -33t55.5 -15.5q37 0 51.5 29.5t16.5 77.5h120q0 -252 -174 -252q-47 0 -86 14t-70.5 31.5t-57 32t-50.5 14.5q-35 0 -50 -27.5t-17 -77.5h-121z" />
<glyph unicode="&#x2000;" horiz-adv-x="878" />
<glyph unicode="&#x2001;" horiz-adv-x="1757" />
<glyph unicode="&#x2002;" horiz-adv-x="878" />
<glyph unicode="&#x2003;" horiz-adv-x="1757" />
<glyph unicode="&#x2004;" horiz-adv-x="585" />
<glyph unicode="&#x2005;" horiz-adv-x="439" />
<glyph unicode="&#x2006;" horiz-adv-x="292" />
<glyph unicode="&#x2007;" horiz-adv-x="292" />
<glyph unicode="&#x2008;" horiz-adv-x="219" />
<glyph unicode="&#x2009;" horiz-adv-x="351" />
<glyph unicode="&#x200a;" horiz-adv-x="97" />
<glyph unicode="&#x2010;" horiz-adv-x="573" d="M61 500v192h451v-192h-451z" />
<glyph unicode="&#x2011;" horiz-adv-x="573" d="M61 500v192h451v-192h-451z" />
<glyph unicode="&#x2012;" horiz-adv-x="573" d="M61 500v192h451v-192h-451z" />
<glyph unicode="&#x2013;" horiz-adv-x="1038" d="M86 385v156h866v-156h-866z" />
<glyph unicode="&#x2014;" horiz-adv-x="1884" d="M86 385v154h1712v-154h-1712z" />
<glyph unicode="&#x2018;" horiz-adv-x="450" d="M51 1151q0 66 20.5 125t56.5 110.5t82 91.5t97 68l72 -98q-59 -33 -106.5 -87t-61.5 -126l33 -6q63 -12 97 -56.5t34 -103.5t-39 -104t-113 -45q-29 0 -59.5 11t-55 38.5t-41 71.5t-16.5 110z" />
<glyph unicode="&#x2019;" horiz-adv-x="450" d="M72 1018q59 33 106 87t62 126l-33 6q-63 12 -97 56t-34 104q0 59 40 104t113 45q29 0 59.5 -11t55.5 -38t40 -71t15 -107q0 -66 -20.5 -126t-56 -111.5t-81.5 -93.5t-98 -68z" />
<glyph unicode="&#x201a;" horiz-adv-x="446" d="M61 137q0 59 41 106.5t115 47.5q29 0 60.5 -11.5t57 -39t43 -71.5t17.5 -108q0 -66 -21.5 -125t-56 -110t-82 -93t-98.5 -69l-71 98q59 33 106 87.5t61 125.5l-38 9q-61 10 -97.5 52t-36.5 101z" />
<glyph unicode="&#x201c;" horiz-adv-x="907" d="M51 1151q0 66 20.5 125t56.5 110.5t82 91.5t97 68l72 -98q-59 -33 -106.5 -87t-61.5 -126l33 -6q63 -12 97 -56.5t34 -103.5t-38 -104t-112 -45q-29 0 -59.5 11t-56 38.5t-42 71.5t-16.5 110zM506 1151q0 66 21.5 125t56 110.5t82 91.5t98.5 68l72 -98 q-59 -33 -106.5 -87t-61.5 -126l32 -6q61 -12 95 -56.5t34 -103.5t-37.5 -104t-111.5 -45q-29 0 -59.5 11t-56 38.5t-42 71.5t-16.5 110z" />
<glyph unicode="&#x201d;" horiz-adv-x="907" d="M72 1018q59 33 106 87t62 126l-33 6q-63 10 -97 55t-34 105q0 59 39 104t112 45q29 0 59.5 -11t55.5 -38t41 -71t16 -107q0 -66 -20.5 -126t-56 -111.5t-81.5 -93.5t-98 -68zM526 1018q59 33 106.5 87t61.5 126l-32 6q-61 10 -95.5 55t-34.5 105q0 59 39 104t113 45 q29 0 59.5 -11t55 -38t41 -71t16.5 -107q0 -66 -21.5 -126t-56.5 -111.5t-82 -93.5t-98 -68z" />
<glyph unicode="&#x201e;" horiz-adv-x="911" d="M61 137q0 59 41 106.5t115 47.5q29 0 60.5 -11.5t57 -39t43 -71.5t17.5 -108q0 -66 -21.5 -125t-56 -110t-82 -93t-98.5 -69l-71 98q59 33 106 87.5t61 125.5l-38 9q-61 10 -97.5 52t-36.5 101zM526 137q0 59 41 106.5t115 47.5q29 0 60.5 -11.5t57 -39t43 -71.5 t17.5 -108q0 -66 -20.5 -125t-56 -110t-82 -93t-97.5 -69l-72 98q59 33 106.5 87.5t61.5 125.5l-41 9q-61 10 -97 52t-36 101z" />
<glyph unicode="&#x2022;" horiz-adv-x="733" d="M100 555q0 55 20.5 103.5t57.5 85t85 57t104 20.5q55 0 103 -20.5t85 -57t57.5 -85t20.5 -103.5t-20.5 -104.5t-56.5 -85t-85 -56t-104 -20.5t-103.5 20.5t-85.5 56t-57.5 85t-20.5 104.5z" />
<glyph unicode="&#x2026;" horiz-adv-x="1499" d="M100 133q0 66 45 110t107 44q61 0 104 -44t43 -110q0 -72 -43 -112.5t-104 -40.5t-106.5 40.5t-45.5 112.5zM614 133q0 66 45.5 110t106.5 44t104 -44t43 -110q0 -72 -43 -112.5t-104 -40.5t-106.5 40.5t-45.5 112.5zM1128 133q0 66 45.5 110t106.5 44t104 -44t43 -110 q0 -72 -43 -112.5t-104 -40.5t-106.5 40.5t-45.5 112.5z" />
<glyph unicode="&#x202f;" horiz-adv-x="351" />
<glyph unicode="&#x2039;" horiz-adv-x="620" d="M74 483l282 330h197l-258 -330l258 -327h-197z" />
<glyph unicode="&#x203a;" horiz-adv-x="616" d="M70 156l258 327l-258 330h196l283 -330l-283 -327h-196z" />
<glyph unicode="&#x205f;" horiz-adv-x="439" />
<glyph unicode="&#x20ac;" horiz-adv-x="1138" d="M10 440v125h127q-2 29 -2 46.5v35.5v31h-125v125h142q41 242 192.5 375t396.5 133q131 0 210 -22.5t139 -53.5l-58 -188q-61 31 -123.5 49t-138.5 18q-63 0 -121.5 -18.5t-106.5 -56.5t-82 -96t-46 -140h514v-125h-531v-25v-38.5t2 -49.5h529v-125h-504 q35 -143 128 -203.5t210 -60.5q88 0 152.5 16.5t117.5 45.5l53 -189q-57 -29 -140 -49t-210 -20q-109 0 -204 29.5t-170.5 87t-128 143.5t-76.5 200h-146z" />
<glyph unicode="&#x2122;" horiz-adv-x="1499" d="M82 1182v108h553v-108h-211v-621h-137v621h-205zM680 561l59 729h166l78 -256q23 -68 42 -147.5t36 -153.5h6q14 70 34.5 144.5t43.5 152.5l76 260h165l62 -729h-133q-4 66 -10.5 131.5t-10.5 134.5q-4 70 -7 145t-1 161h-4q-29 -125 -53.5 -208t-46.5 -155l-66 -209 h-106l-70 207q-25 76 -49.5 162t-46.5 203h-4q-2 -88 -6.5 -167t-8.5 -135l-16 -270h-129z" />
<glyph unicode="&#x25fc;" horiz-adv-x="972" d="M0 0v973h973v-973h-973z" />
</font>
</defs>
</svg>
